G04 MADE WITH FRITZING*
G04 WWW.FRITZING.ORG*
G04 DOUBLE SIDED*
G04 HOLES PLATED*
G04 CONTOUR ON CENTER OF CONTOUR VECTOR*
%ASAXBY*%
%FSLAX23Y23*%
%MOIN*%
%OFA0B0*%
%SFA1.0B1.0*%
%ADD10C,0.068000*%
%ADD11C,0.074000*%
%ADD12C,0.024000*%
%ADD13R,0.001000X0.001000*%
%LNCOPPER0*%
G90*
G70*
G54D10*
X341Y57D03*
X441Y57D03*
X241Y57D03*
X141Y57D03*
X541Y57D03*
X641Y57D03*
X741Y57D03*
X841Y57D03*
X941Y57D03*
X1041Y57D03*
X1141Y57D03*
X1241Y57D03*
X441Y757D03*
X341Y757D03*
X241Y757D03*
X141Y757D03*
X541Y757D03*
X641Y757D03*
X741Y757D03*
X841Y757D03*
X1041Y757D03*
X941Y757D03*
X1141Y757D03*
X1241Y757D03*
G54D11*
X941Y357D03*
X941Y457D03*
X941Y557D03*
X941Y257D03*
X941Y157D03*
G54D12*
X941Y86D02*
X941Y124D01*
D02*
X240Y558D02*
X908Y462D01*
D02*
X154Y731D02*
X240Y558D01*
D02*
X941Y324D02*
X941Y290D01*
D02*
X1140Y258D02*
X974Y257D01*
D02*
X1235Y728D02*
X1140Y258D01*
G54D13*
X134Y791D02*
X146Y791D01*
X234Y791D02*
X246Y791D01*
X334Y791D02*
X346Y791D01*
X434Y791D02*
X446Y791D01*
X534Y791D02*
X546Y791D01*
X634Y791D02*
X646Y791D01*
X734Y791D02*
X746Y791D01*
X834Y791D02*
X846Y791D01*
X934Y791D02*
X946Y791D01*
X1034Y791D02*
X1046Y791D01*
X1134Y791D02*
X1146Y791D01*
X1234Y791D02*
X1246Y791D01*
X131Y790D02*
X150Y790D01*
X231Y790D02*
X250Y790D01*
X331Y790D02*
X350Y790D01*
X431Y790D02*
X450Y790D01*
X531Y790D02*
X550Y790D01*
X631Y790D02*
X650Y790D01*
X731Y790D02*
X750Y790D01*
X831Y790D02*
X850Y790D01*
X931Y790D02*
X950Y790D01*
X1031Y790D02*
X1050Y790D01*
X1131Y790D02*
X1150Y790D01*
X1231Y790D02*
X1250Y790D01*
X128Y789D02*
X152Y789D01*
X228Y789D02*
X252Y789D01*
X328Y789D02*
X352Y789D01*
X428Y789D02*
X452Y789D01*
X528Y789D02*
X552Y789D01*
X628Y789D02*
X652Y789D01*
X728Y789D02*
X752Y789D01*
X828Y789D02*
X852Y789D01*
X928Y789D02*
X952Y789D01*
X1028Y789D02*
X1052Y789D01*
X1128Y789D02*
X1152Y789D01*
X1228Y789D02*
X1252Y789D01*
X126Y788D02*
X154Y788D01*
X226Y788D02*
X254Y788D01*
X326Y788D02*
X354Y788D01*
X426Y788D02*
X454Y788D01*
X526Y788D02*
X554Y788D01*
X626Y788D02*
X654Y788D01*
X726Y788D02*
X754Y788D01*
X826Y788D02*
X854Y788D01*
X926Y788D02*
X954Y788D01*
X1026Y788D02*
X1054Y788D01*
X1126Y788D02*
X1154Y788D01*
X1226Y788D02*
X1254Y788D01*
X124Y787D02*
X156Y787D01*
X224Y787D02*
X256Y787D01*
X324Y787D02*
X356Y787D01*
X424Y787D02*
X456Y787D01*
X524Y787D02*
X556Y787D01*
X624Y787D02*
X656Y787D01*
X724Y787D02*
X756Y787D01*
X824Y787D02*
X856Y787D01*
X924Y787D02*
X956Y787D01*
X1024Y787D02*
X1056Y787D01*
X1124Y787D02*
X1156Y787D01*
X1224Y787D02*
X1256Y787D01*
X123Y786D02*
X158Y786D01*
X223Y786D02*
X258Y786D01*
X323Y786D02*
X358Y786D01*
X423Y786D02*
X458Y786D01*
X523Y786D02*
X558Y786D01*
X623Y786D02*
X658Y786D01*
X723Y786D02*
X757Y786D01*
X823Y786D02*
X857Y786D01*
X923Y786D02*
X957Y786D01*
X1023Y786D02*
X1057Y786D01*
X1123Y786D02*
X1157Y786D01*
X1223Y786D02*
X1257Y786D01*
X121Y785D02*
X159Y785D01*
X221Y785D02*
X259Y785D01*
X321Y785D02*
X359Y785D01*
X421Y785D02*
X459Y785D01*
X521Y785D02*
X559Y785D01*
X621Y785D02*
X659Y785D01*
X721Y785D02*
X759Y785D01*
X821Y785D02*
X859Y785D01*
X921Y785D02*
X959Y785D01*
X1021Y785D02*
X1059Y785D01*
X1121Y785D02*
X1159Y785D01*
X1221Y785D02*
X1259Y785D01*
X120Y784D02*
X160Y784D01*
X220Y784D02*
X260Y784D01*
X320Y784D02*
X360Y784D01*
X420Y784D02*
X460Y784D01*
X520Y784D02*
X560Y784D01*
X620Y784D02*
X660Y784D01*
X720Y784D02*
X760Y784D01*
X820Y784D02*
X860Y784D01*
X920Y784D02*
X960Y784D01*
X1020Y784D02*
X1060Y784D01*
X1120Y784D02*
X1160Y784D01*
X1220Y784D02*
X1260Y784D01*
X119Y783D02*
X161Y783D01*
X219Y783D02*
X261Y783D01*
X319Y783D02*
X361Y783D01*
X419Y783D02*
X461Y783D01*
X519Y783D02*
X561Y783D01*
X619Y783D02*
X661Y783D01*
X719Y783D02*
X761Y783D01*
X819Y783D02*
X861Y783D01*
X919Y783D02*
X961Y783D01*
X1019Y783D02*
X1061Y783D01*
X1119Y783D02*
X1161Y783D01*
X1219Y783D02*
X1261Y783D01*
X118Y782D02*
X163Y782D01*
X218Y782D02*
X263Y782D01*
X318Y782D02*
X363Y782D01*
X418Y782D02*
X463Y782D01*
X518Y782D02*
X563Y782D01*
X618Y782D02*
X663Y782D01*
X718Y782D02*
X762Y782D01*
X818Y782D02*
X862Y782D01*
X918Y782D02*
X962Y782D01*
X1018Y782D02*
X1062Y782D01*
X1118Y782D02*
X1162Y782D01*
X1218Y782D02*
X1262Y782D01*
X117Y781D02*
X164Y781D01*
X217Y781D02*
X264Y781D01*
X317Y781D02*
X364Y781D01*
X417Y781D02*
X464Y781D01*
X517Y781D02*
X564Y781D01*
X617Y781D02*
X664Y781D01*
X717Y781D02*
X764Y781D01*
X817Y781D02*
X864Y781D01*
X917Y781D02*
X964Y781D01*
X1017Y781D02*
X1064Y781D01*
X1117Y781D02*
X1164Y781D01*
X1217Y781D02*
X1264Y781D01*
X116Y780D02*
X165Y780D01*
X216Y780D02*
X265Y780D01*
X316Y780D02*
X365Y780D01*
X416Y780D02*
X464Y780D01*
X516Y780D02*
X564Y780D01*
X616Y780D02*
X664Y780D01*
X716Y780D02*
X764Y780D01*
X816Y780D02*
X864Y780D01*
X916Y780D02*
X964Y780D01*
X1016Y780D02*
X1064Y780D01*
X1116Y780D02*
X1164Y780D01*
X1216Y780D02*
X1264Y780D01*
X115Y779D02*
X165Y779D01*
X215Y779D02*
X265Y779D01*
X315Y779D02*
X365Y779D01*
X415Y779D02*
X465Y779D01*
X515Y779D02*
X565Y779D01*
X615Y779D02*
X665Y779D01*
X715Y779D02*
X765Y779D01*
X815Y779D02*
X865Y779D01*
X915Y779D02*
X965Y779D01*
X1015Y779D02*
X1065Y779D01*
X1115Y779D02*
X1165Y779D01*
X1215Y779D02*
X1265Y779D01*
X114Y778D02*
X166Y778D01*
X214Y778D02*
X266Y778D01*
X314Y778D02*
X366Y778D01*
X414Y778D02*
X466Y778D01*
X514Y778D02*
X566Y778D01*
X614Y778D02*
X666Y778D01*
X714Y778D02*
X766Y778D01*
X814Y778D02*
X866Y778D01*
X914Y778D02*
X966Y778D01*
X1014Y778D02*
X1066Y778D01*
X1114Y778D02*
X1166Y778D01*
X1214Y778D02*
X1266Y778D01*
X114Y777D02*
X167Y777D01*
X214Y777D02*
X267Y777D01*
X313Y777D02*
X367Y777D01*
X413Y777D02*
X467Y777D01*
X513Y777D02*
X567Y777D01*
X613Y777D02*
X667Y777D01*
X713Y777D02*
X767Y777D01*
X813Y777D02*
X867Y777D01*
X913Y777D02*
X967Y777D01*
X1013Y777D02*
X1067Y777D01*
X1113Y777D02*
X1167Y777D01*
X1213Y777D02*
X1267Y777D01*
X113Y776D02*
X168Y776D01*
X213Y776D02*
X268Y776D01*
X313Y776D02*
X368Y776D01*
X413Y776D02*
X468Y776D01*
X513Y776D02*
X568Y776D01*
X613Y776D02*
X668Y776D01*
X713Y776D02*
X768Y776D01*
X813Y776D02*
X868Y776D01*
X913Y776D02*
X968Y776D01*
X1013Y776D02*
X1068Y776D01*
X1113Y776D02*
X1168Y776D01*
X1213Y776D02*
X1268Y776D01*
X112Y775D02*
X134Y775D01*
X146Y775D02*
X168Y775D01*
X212Y775D02*
X234Y775D01*
X246Y775D02*
X268Y775D01*
X312Y775D02*
X334Y775D01*
X346Y775D02*
X368Y775D01*
X412Y775D02*
X434Y775D01*
X446Y775D02*
X468Y775D01*
X512Y775D02*
X534Y775D01*
X546Y775D02*
X568Y775D01*
X612Y775D02*
X634Y775D01*
X646Y775D02*
X668Y775D01*
X712Y775D02*
X734Y775D01*
X746Y775D02*
X768Y775D01*
X812Y775D02*
X834Y775D01*
X846Y775D02*
X868Y775D01*
X912Y775D02*
X934Y775D01*
X946Y775D02*
X968Y775D01*
X1012Y775D02*
X1034Y775D01*
X1046Y775D02*
X1068Y775D01*
X1112Y775D02*
X1134Y775D01*
X1146Y775D02*
X1168Y775D01*
X1212Y775D02*
X1234Y775D01*
X1246Y775D02*
X1268Y775D01*
X112Y774D02*
X131Y774D01*
X149Y774D02*
X169Y774D01*
X212Y774D02*
X231Y774D01*
X249Y774D02*
X269Y774D01*
X312Y774D02*
X331Y774D01*
X349Y774D02*
X369Y774D01*
X412Y774D02*
X431Y774D01*
X449Y774D02*
X469Y774D01*
X512Y774D02*
X531Y774D01*
X549Y774D02*
X569Y774D01*
X612Y774D02*
X631Y774D01*
X649Y774D02*
X669Y774D01*
X711Y774D02*
X731Y774D01*
X749Y774D02*
X769Y774D01*
X811Y774D02*
X831Y774D01*
X849Y774D02*
X869Y774D01*
X911Y774D02*
X931Y774D01*
X949Y774D02*
X969Y774D01*
X1011Y774D02*
X1031Y774D01*
X1049Y774D02*
X1069Y774D01*
X1111Y774D02*
X1131Y774D01*
X1149Y774D02*
X1169Y774D01*
X1211Y774D02*
X1231Y774D01*
X1249Y774D02*
X1269Y774D01*
X111Y773D02*
X129Y773D01*
X151Y773D02*
X170Y773D01*
X211Y773D02*
X229Y773D01*
X251Y773D02*
X270Y773D01*
X311Y773D02*
X329Y773D01*
X351Y773D02*
X370Y773D01*
X411Y773D02*
X429Y773D01*
X451Y773D02*
X470Y773D01*
X511Y773D02*
X529Y773D01*
X551Y773D02*
X570Y773D01*
X611Y773D02*
X629Y773D01*
X651Y773D02*
X670Y773D01*
X711Y773D02*
X729Y773D01*
X751Y773D02*
X770Y773D01*
X811Y773D02*
X829Y773D01*
X851Y773D02*
X870Y773D01*
X911Y773D02*
X929Y773D01*
X951Y773D02*
X970Y773D01*
X1011Y773D02*
X1029Y773D01*
X1051Y773D02*
X1070Y773D01*
X1111Y773D02*
X1129Y773D01*
X1151Y773D02*
X1170Y773D01*
X1211Y773D02*
X1229Y773D01*
X1251Y773D02*
X1270Y773D01*
X110Y772D02*
X128Y772D01*
X152Y772D02*
X170Y772D01*
X210Y772D02*
X228Y772D01*
X252Y772D02*
X270Y772D01*
X310Y772D02*
X328Y772D01*
X352Y772D02*
X370Y772D01*
X410Y772D02*
X428Y772D01*
X452Y772D02*
X470Y772D01*
X510Y772D02*
X528Y772D01*
X552Y772D02*
X570Y772D01*
X610Y772D02*
X628Y772D01*
X652Y772D02*
X670Y772D01*
X710Y772D02*
X728Y772D01*
X752Y772D02*
X770Y772D01*
X810Y772D02*
X828Y772D01*
X852Y772D02*
X870Y772D01*
X910Y772D02*
X928Y772D01*
X952Y772D02*
X970Y772D01*
X1010Y772D02*
X1028Y772D01*
X1052Y772D02*
X1070Y772D01*
X1110Y772D02*
X1128Y772D01*
X1152Y772D02*
X1170Y772D01*
X1210Y772D02*
X1228Y772D01*
X1252Y772D02*
X1270Y772D01*
X110Y771D02*
X127Y771D01*
X154Y771D02*
X171Y771D01*
X210Y771D02*
X227Y771D01*
X254Y771D02*
X271Y771D01*
X310Y771D02*
X327Y771D01*
X354Y771D02*
X371Y771D01*
X410Y771D02*
X427Y771D01*
X454Y771D02*
X471Y771D01*
X510Y771D02*
X527Y771D01*
X554Y771D02*
X571Y771D01*
X610Y771D02*
X627Y771D01*
X654Y771D02*
X671Y771D01*
X710Y771D02*
X727Y771D01*
X754Y771D02*
X771Y771D01*
X810Y771D02*
X827Y771D01*
X854Y771D02*
X871Y771D01*
X910Y771D02*
X927Y771D01*
X954Y771D02*
X971Y771D01*
X1010Y771D02*
X1027Y771D01*
X1054Y771D02*
X1071Y771D01*
X1110Y771D02*
X1127Y771D01*
X1154Y771D02*
X1171Y771D01*
X1210Y771D02*
X1227Y771D01*
X1254Y771D02*
X1271Y771D01*
X110Y770D02*
X126Y770D01*
X155Y770D02*
X171Y770D01*
X210Y770D02*
X226Y770D01*
X255Y770D02*
X271Y770D01*
X310Y770D02*
X326Y770D01*
X355Y770D02*
X371Y770D01*
X409Y770D02*
X426Y770D01*
X454Y770D02*
X471Y770D01*
X509Y770D02*
X526Y770D01*
X554Y770D02*
X571Y770D01*
X609Y770D02*
X626Y770D01*
X654Y770D02*
X671Y770D01*
X709Y770D02*
X726Y770D01*
X754Y770D02*
X771Y770D01*
X809Y770D02*
X826Y770D01*
X854Y770D02*
X871Y770D01*
X909Y770D02*
X926Y770D01*
X954Y770D02*
X971Y770D01*
X1009Y770D02*
X1026Y770D01*
X1054Y770D02*
X1071Y770D01*
X1109Y770D02*
X1126Y770D01*
X1154Y770D02*
X1171Y770D01*
X1209Y770D02*
X1226Y770D01*
X1254Y770D02*
X1271Y770D01*
X109Y769D02*
X125Y769D01*
X155Y769D02*
X172Y769D01*
X209Y769D02*
X225Y769D01*
X255Y769D02*
X272Y769D01*
X309Y769D02*
X325Y769D01*
X355Y769D02*
X372Y769D01*
X409Y769D02*
X425Y769D01*
X455Y769D02*
X472Y769D01*
X509Y769D02*
X525Y769D01*
X555Y769D02*
X572Y769D01*
X609Y769D02*
X625Y769D01*
X655Y769D02*
X672Y769D01*
X709Y769D02*
X725Y769D01*
X755Y769D02*
X772Y769D01*
X809Y769D02*
X825Y769D01*
X855Y769D02*
X872Y769D01*
X909Y769D02*
X925Y769D01*
X955Y769D02*
X972Y769D01*
X1009Y769D02*
X1025Y769D01*
X1055Y769D02*
X1071Y769D01*
X1109Y769D02*
X1125Y769D01*
X1155Y769D02*
X1171Y769D01*
X1209Y769D02*
X1225Y769D01*
X1255Y769D02*
X1271Y769D01*
X109Y768D02*
X124Y768D01*
X156Y768D02*
X172Y768D01*
X209Y768D02*
X224Y768D01*
X256Y768D02*
X272Y768D01*
X309Y768D02*
X324Y768D01*
X356Y768D02*
X372Y768D01*
X409Y768D02*
X424Y768D01*
X456Y768D02*
X472Y768D01*
X509Y768D02*
X524Y768D01*
X556Y768D02*
X572Y768D01*
X609Y768D02*
X624Y768D01*
X656Y768D02*
X672Y768D01*
X709Y768D02*
X724Y768D01*
X756Y768D02*
X772Y768D01*
X809Y768D02*
X824Y768D01*
X856Y768D02*
X872Y768D01*
X909Y768D02*
X924Y768D01*
X956Y768D02*
X972Y768D01*
X1009Y768D02*
X1024Y768D01*
X1056Y768D02*
X1072Y768D01*
X1109Y768D02*
X1124Y768D01*
X1156Y768D02*
X1172Y768D01*
X1209Y768D02*
X1224Y768D01*
X1256Y768D02*
X1272Y768D01*
X108Y767D02*
X124Y767D01*
X157Y767D02*
X172Y767D01*
X208Y767D02*
X224Y767D01*
X257Y767D02*
X272Y767D01*
X308Y767D02*
X324Y767D01*
X357Y767D02*
X372Y767D01*
X408Y767D02*
X424Y767D01*
X457Y767D02*
X472Y767D01*
X508Y767D02*
X524Y767D01*
X557Y767D02*
X572Y767D01*
X608Y767D02*
X624Y767D01*
X657Y767D02*
X672Y767D01*
X708Y767D02*
X724Y767D01*
X757Y767D02*
X772Y767D01*
X808Y767D02*
X824Y767D01*
X857Y767D02*
X872Y767D01*
X908Y767D02*
X924Y767D01*
X957Y767D02*
X972Y767D01*
X1008Y767D02*
X1024Y767D01*
X1057Y767D02*
X1072Y767D01*
X1108Y767D02*
X1124Y767D01*
X1157Y767D02*
X1172Y767D01*
X1208Y767D02*
X1224Y767D01*
X1257Y767D02*
X1272Y767D01*
X108Y766D02*
X124Y766D01*
X157Y766D02*
X173Y766D01*
X208Y766D02*
X224Y766D01*
X257Y766D02*
X273Y766D01*
X308Y766D02*
X323Y766D01*
X357Y766D02*
X373Y766D01*
X408Y766D02*
X423Y766D01*
X457Y766D02*
X473Y766D01*
X508Y766D02*
X523Y766D01*
X557Y766D02*
X573Y766D01*
X608Y766D02*
X623Y766D01*
X657Y766D02*
X673Y766D01*
X708Y766D02*
X723Y766D01*
X757Y766D02*
X773Y766D01*
X808Y766D02*
X823Y766D01*
X857Y766D02*
X873Y766D01*
X908Y766D02*
X923Y766D01*
X957Y766D02*
X973Y766D01*
X1008Y766D02*
X1023Y766D01*
X1057Y766D02*
X1073Y766D01*
X1108Y766D02*
X1123Y766D01*
X1157Y766D02*
X1173Y766D01*
X1208Y766D02*
X1223Y766D01*
X1257Y766D02*
X1273Y766D01*
X108Y765D02*
X123Y765D01*
X158Y765D02*
X173Y765D01*
X208Y765D02*
X223Y765D01*
X258Y765D02*
X273Y765D01*
X308Y765D02*
X323Y765D01*
X358Y765D02*
X373Y765D01*
X408Y765D02*
X423Y765D01*
X458Y765D02*
X473Y765D01*
X508Y765D02*
X523Y765D01*
X558Y765D02*
X573Y765D01*
X608Y765D02*
X623Y765D01*
X658Y765D02*
X673Y765D01*
X708Y765D02*
X723Y765D01*
X758Y765D02*
X773Y765D01*
X808Y765D02*
X823Y765D01*
X858Y765D02*
X873Y765D01*
X908Y765D02*
X923Y765D01*
X958Y765D02*
X973Y765D01*
X1008Y765D02*
X1023Y765D01*
X1058Y765D02*
X1073Y765D01*
X1108Y765D02*
X1123Y765D01*
X1158Y765D02*
X1173Y765D01*
X1208Y765D02*
X1223Y765D01*
X1257Y765D02*
X1273Y765D01*
X108Y764D02*
X123Y764D01*
X158Y764D02*
X173Y764D01*
X208Y764D02*
X223Y764D01*
X258Y764D02*
X273Y764D01*
X308Y764D02*
X323Y764D01*
X358Y764D02*
X373Y764D01*
X408Y764D02*
X423Y764D01*
X458Y764D02*
X473Y764D01*
X508Y764D02*
X523Y764D01*
X558Y764D02*
X573Y764D01*
X608Y764D02*
X623Y764D01*
X658Y764D02*
X673Y764D01*
X708Y764D02*
X723Y764D01*
X758Y764D02*
X773Y764D01*
X808Y764D02*
X823Y764D01*
X858Y764D02*
X873Y764D01*
X908Y764D02*
X923Y764D01*
X958Y764D02*
X973Y764D01*
X1008Y764D02*
X1023Y764D01*
X1058Y764D02*
X1073Y764D01*
X1108Y764D02*
X1123Y764D01*
X1158Y764D02*
X1173Y764D01*
X1207Y764D02*
X1223Y764D01*
X1258Y764D02*
X1273Y764D01*
X107Y763D02*
X123Y763D01*
X158Y763D02*
X173Y763D01*
X207Y763D02*
X223Y763D01*
X258Y763D02*
X273Y763D01*
X307Y763D02*
X323Y763D01*
X358Y763D02*
X373Y763D01*
X407Y763D02*
X423Y763D01*
X458Y763D02*
X473Y763D01*
X507Y763D02*
X523Y763D01*
X558Y763D02*
X573Y763D01*
X607Y763D02*
X623Y763D01*
X658Y763D02*
X673Y763D01*
X707Y763D02*
X723Y763D01*
X758Y763D02*
X773Y763D01*
X807Y763D02*
X823Y763D01*
X858Y763D02*
X873Y763D01*
X907Y763D02*
X922Y763D01*
X958Y763D02*
X973Y763D01*
X1007Y763D02*
X1022Y763D01*
X1058Y763D02*
X1073Y763D01*
X1107Y763D02*
X1122Y763D01*
X1158Y763D02*
X1173Y763D01*
X1207Y763D02*
X1222Y763D01*
X1258Y763D02*
X1273Y763D01*
X107Y762D02*
X122Y762D01*
X158Y762D02*
X174Y762D01*
X207Y762D02*
X222Y762D01*
X258Y762D02*
X274Y762D01*
X307Y762D02*
X322Y762D01*
X358Y762D02*
X374Y762D01*
X407Y762D02*
X422Y762D01*
X458Y762D02*
X474Y762D01*
X507Y762D02*
X522Y762D01*
X558Y762D02*
X574Y762D01*
X607Y762D02*
X622Y762D01*
X658Y762D02*
X673Y762D01*
X707Y762D02*
X722Y762D01*
X758Y762D02*
X773Y762D01*
X807Y762D02*
X822Y762D01*
X858Y762D02*
X873Y762D01*
X907Y762D02*
X922Y762D01*
X958Y762D02*
X973Y762D01*
X1007Y762D02*
X1022Y762D01*
X1058Y762D02*
X1073Y762D01*
X1107Y762D02*
X1122Y762D01*
X1158Y762D02*
X1173Y762D01*
X1207Y762D02*
X1222Y762D01*
X1258Y762D02*
X1273Y762D01*
X107Y761D02*
X122Y761D01*
X159Y761D02*
X174Y761D01*
X207Y761D02*
X222Y761D01*
X259Y761D02*
X274Y761D01*
X307Y761D02*
X322Y761D01*
X359Y761D02*
X374Y761D01*
X407Y761D02*
X422Y761D01*
X459Y761D02*
X474Y761D01*
X507Y761D02*
X522Y761D01*
X559Y761D02*
X574Y761D01*
X607Y761D02*
X622Y761D01*
X659Y761D02*
X674Y761D01*
X707Y761D02*
X722Y761D01*
X759Y761D02*
X774Y761D01*
X807Y761D02*
X822Y761D01*
X859Y761D02*
X874Y761D01*
X907Y761D02*
X922Y761D01*
X959Y761D02*
X974Y761D01*
X1007Y761D02*
X1022Y761D01*
X1059Y761D02*
X1074Y761D01*
X1107Y761D02*
X1122Y761D01*
X1159Y761D02*
X1174Y761D01*
X1207Y761D02*
X1222Y761D01*
X1259Y761D02*
X1274Y761D01*
X107Y760D02*
X122Y760D01*
X159Y760D02*
X174Y760D01*
X207Y760D02*
X222Y760D01*
X259Y760D02*
X274Y760D01*
X307Y760D02*
X322Y760D01*
X359Y760D02*
X374Y760D01*
X407Y760D02*
X422Y760D01*
X459Y760D02*
X474Y760D01*
X507Y760D02*
X522Y760D01*
X559Y760D02*
X574Y760D01*
X607Y760D02*
X622Y760D01*
X659Y760D02*
X674Y760D01*
X707Y760D02*
X722Y760D01*
X759Y760D02*
X774Y760D01*
X807Y760D02*
X822Y760D01*
X859Y760D02*
X874Y760D01*
X907Y760D02*
X922Y760D01*
X959Y760D02*
X974Y760D01*
X1007Y760D02*
X1022Y760D01*
X1059Y760D02*
X1074Y760D01*
X1107Y760D02*
X1122Y760D01*
X1159Y760D02*
X1174Y760D01*
X1207Y760D02*
X1222Y760D01*
X1259Y760D02*
X1274Y760D01*
X107Y759D02*
X122Y759D01*
X159Y759D02*
X174Y759D01*
X207Y759D02*
X222Y759D01*
X259Y759D02*
X274Y759D01*
X307Y759D02*
X322Y759D01*
X359Y759D02*
X374Y759D01*
X407Y759D02*
X422Y759D01*
X459Y759D02*
X474Y759D01*
X507Y759D02*
X522Y759D01*
X559Y759D02*
X574Y759D01*
X607Y759D02*
X622Y759D01*
X659Y759D02*
X674Y759D01*
X707Y759D02*
X722Y759D01*
X759Y759D02*
X774Y759D01*
X807Y759D02*
X822Y759D01*
X859Y759D02*
X874Y759D01*
X907Y759D02*
X922Y759D01*
X959Y759D02*
X974Y759D01*
X1007Y759D02*
X1022Y759D01*
X1059Y759D02*
X1074Y759D01*
X1107Y759D02*
X1122Y759D01*
X1159Y759D02*
X1174Y759D01*
X1207Y759D02*
X1222Y759D01*
X1259Y759D02*
X1274Y759D01*
X107Y758D02*
X122Y758D01*
X159Y758D02*
X174Y758D01*
X207Y758D02*
X222Y758D01*
X259Y758D02*
X274Y758D01*
X307Y758D02*
X322Y758D01*
X359Y758D02*
X374Y758D01*
X407Y758D02*
X422Y758D01*
X459Y758D02*
X474Y758D01*
X507Y758D02*
X522Y758D01*
X559Y758D02*
X574Y758D01*
X607Y758D02*
X622Y758D01*
X659Y758D02*
X674Y758D01*
X707Y758D02*
X722Y758D01*
X759Y758D02*
X774Y758D01*
X807Y758D02*
X822Y758D01*
X859Y758D02*
X874Y758D01*
X907Y758D02*
X922Y758D01*
X959Y758D02*
X974Y758D01*
X1007Y758D02*
X1022Y758D01*
X1059Y758D02*
X1074Y758D01*
X1107Y758D02*
X1122Y758D01*
X1159Y758D02*
X1174Y758D01*
X1207Y758D02*
X1222Y758D01*
X1259Y758D02*
X1274Y758D01*
X107Y757D02*
X122Y757D01*
X159Y757D02*
X174Y757D01*
X207Y757D02*
X222Y757D01*
X259Y757D02*
X274Y757D01*
X307Y757D02*
X322Y757D01*
X359Y757D02*
X374Y757D01*
X407Y757D02*
X422Y757D01*
X459Y757D02*
X474Y757D01*
X507Y757D02*
X522Y757D01*
X559Y757D02*
X574Y757D01*
X607Y757D02*
X622Y757D01*
X659Y757D02*
X674Y757D01*
X707Y757D02*
X722Y757D01*
X759Y757D02*
X774Y757D01*
X807Y757D02*
X822Y757D01*
X859Y757D02*
X874Y757D01*
X907Y757D02*
X922Y757D01*
X959Y757D02*
X974Y757D01*
X1007Y757D02*
X1022Y757D01*
X1059Y757D02*
X1074Y757D01*
X1107Y757D02*
X1122Y757D01*
X1159Y757D02*
X1174Y757D01*
X1207Y757D02*
X1222Y757D01*
X1259Y757D02*
X1274Y757D01*
X107Y756D02*
X122Y756D01*
X159Y756D02*
X174Y756D01*
X207Y756D02*
X222Y756D01*
X259Y756D02*
X274Y756D01*
X307Y756D02*
X322Y756D01*
X359Y756D02*
X374Y756D01*
X407Y756D02*
X422Y756D01*
X459Y756D02*
X474Y756D01*
X507Y756D02*
X522Y756D01*
X559Y756D02*
X574Y756D01*
X607Y756D02*
X622Y756D01*
X659Y756D02*
X674Y756D01*
X707Y756D02*
X722Y756D01*
X759Y756D02*
X774Y756D01*
X807Y756D02*
X822Y756D01*
X859Y756D02*
X874Y756D01*
X907Y756D02*
X922Y756D01*
X959Y756D02*
X974Y756D01*
X1007Y756D02*
X1022Y756D01*
X1059Y756D02*
X1074Y756D01*
X1107Y756D02*
X1122Y756D01*
X1159Y756D02*
X1174Y756D01*
X1207Y756D02*
X1222Y756D01*
X1259Y756D02*
X1274Y756D01*
X107Y755D02*
X122Y755D01*
X159Y755D02*
X174Y755D01*
X207Y755D02*
X222Y755D01*
X259Y755D02*
X274Y755D01*
X307Y755D02*
X322Y755D01*
X359Y755D02*
X374Y755D01*
X407Y755D02*
X422Y755D01*
X459Y755D02*
X474Y755D01*
X507Y755D02*
X522Y755D01*
X559Y755D02*
X574Y755D01*
X607Y755D02*
X622Y755D01*
X659Y755D02*
X674Y755D01*
X707Y755D02*
X722Y755D01*
X759Y755D02*
X774Y755D01*
X807Y755D02*
X822Y755D01*
X859Y755D02*
X874Y755D01*
X907Y755D02*
X922Y755D01*
X959Y755D02*
X974Y755D01*
X1007Y755D02*
X1022Y755D01*
X1059Y755D02*
X1074Y755D01*
X1107Y755D02*
X1122Y755D01*
X1159Y755D02*
X1174Y755D01*
X1207Y755D02*
X1222Y755D01*
X1259Y755D02*
X1274Y755D01*
X107Y754D02*
X122Y754D01*
X159Y754D02*
X174Y754D01*
X207Y754D02*
X222Y754D01*
X259Y754D02*
X274Y754D01*
X307Y754D02*
X322Y754D01*
X359Y754D02*
X374Y754D01*
X407Y754D02*
X422Y754D01*
X459Y754D02*
X474Y754D01*
X507Y754D02*
X522Y754D01*
X559Y754D02*
X574Y754D01*
X607Y754D02*
X622Y754D01*
X659Y754D02*
X674Y754D01*
X707Y754D02*
X722Y754D01*
X759Y754D02*
X774Y754D01*
X807Y754D02*
X822Y754D01*
X859Y754D02*
X874Y754D01*
X907Y754D02*
X922Y754D01*
X959Y754D02*
X974Y754D01*
X1007Y754D02*
X1022Y754D01*
X1059Y754D02*
X1074Y754D01*
X1107Y754D02*
X1122Y754D01*
X1159Y754D02*
X1174Y754D01*
X1207Y754D02*
X1222Y754D01*
X1259Y754D02*
X1274Y754D01*
X107Y753D02*
X122Y753D01*
X158Y753D02*
X173Y753D01*
X207Y753D02*
X222Y753D01*
X258Y753D02*
X273Y753D01*
X307Y753D02*
X322Y753D01*
X358Y753D02*
X373Y753D01*
X407Y753D02*
X422Y753D01*
X458Y753D02*
X473Y753D01*
X507Y753D02*
X522Y753D01*
X558Y753D02*
X573Y753D01*
X607Y753D02*
X622Y753D01*
X658Y753D02*
X673Y753D01*
X707Y753D02*
X722Y753D01*
X758Y753D02*
X773Y753D01*
X807Y753D02*
X822Y753D01*
X858Y753D02*
X873Y753D01*
X907Y753D02*
X922Y753D01*
X958Y753D02*
X973Y753D01*
X1007Y753D02*
X1022Y753D01*
X1058Y753D02*
X1073Y753D01*
X1107Y753D02*
X1122Y753D01*
X1158Y753D02*
X1173Y753D01*
X1207Y753D02*
X1222Y753D01*
X1258Y753D02*
X1273Y753D01*
X107Y752D02*
X123Y752D01*
X158Y752D02*
X173Y752D01*
X207Y752D02*
X223Y752D01*
X258Y752D02*
X273Y752D01*
X307Y752D02*
X323Y752D01*
X358Y752D02*
X373Y752D01*
X407Y752D02*
X423Y752D01*
X458Y752D02*
X473Y752D01*
X507Y752D02*
X523Y752D01*
X558Y752D02*
X573Y752D01*
X607Y752D02*
X623Y752D01*
X658Y752D02*
X673Y752D01*
X707Y752D02*
X723Y752D01*
X758Y752D02*
X773Y752D01*
X807Y752D02*
X823Y752D01*
X858Y752D02*
X873Y752D01*
X907Y752D02*
X923Y752D01*
X958Y752D02*
X973Y752D01*
X1007Y752D02*
X1023Y752D01*
X1058Y752D02*
X1073Y752D01*
X1107Y752D02*
X1123Y752D01*
X1158Y752D02*
X1173Y752D01*
X1207Y752D02*
X1223Y752D01*
X1258Y752D02*
X1273Y752D01*
X108Y751D02*
X123Y751D01*
X158Y751D02*
X173Y751D01*
X208Y751D02*
X223Y751D01*
X258Y751D02*
X273Y751D01*
X308Y751D02*
X323Y751D01*
X358Y751D02*
X373Y751D01*
X408Y751D02*
X423Y751D01*
X458Y751D02*
X473Y751D01*
X508Y751D02*
X523Y751D01*
X558Y751D02*
X573Y751D01*
X608Y751D02*
X623Y751D01*
X658Y751D02*
X673Y751D01*
X708Y751D02*
X723Y751D01*
X758Y751D02*
X773Y751D01*
X808Y751D02*
X823Y751D01*
X858Y751D02*
X873Y751D01*
X908Y751D02*
X923Y751D01*
X958Y751D02*
X973Y751D01*
X1008Y751D02*
X1023Y751D01*
X1058Y751D02*
X1073Y751D01*
X1108Y751D02*
X1123Y751D01*
X1158Y751D02*
X1173Y751D01*
X1208Y751D02*
X1223Y751D01*
X1258Y751D02*
X1273Y751D01*
X108Y750D02*
X123Y750D01*
X158Y750D02*
X173Y750D01*
X208Y750D02*
X223Y750D01*
X258Y750D02*
X273Y750D01*
X308Y750D02*
X323Y750D01*
X358Y750D02*
X373Y750D01*
X408Y750D02*
X423Y750D01*
X458Y750D02*
X473Y750D01*
X508Y750D02*
X523Y750D01*
X558Y750D02*
X573Y750D01*
X608Y750D02*
X623Y750D01*
X658Y750D02*
X673Y750D01*
X708Y750D02*
X723Y750D01*
X758Y750D02*
X773Y750D01*
X808Y750D02*
X823Y750D01*
X857Y750D02*
X873Y750D01*
X908Y750D02*
X923Y750D01*
X957Y750D02*
X973Y750D01*
X1008Y750D02*
X1023Y750D01*
X1057Y750D02*
X1073Y750D01*
X1108Y750D02*
X1123Y750D01*
X1157Y750D02*
X1173Y750D01*
X1208Y750D02*
X1223Y750D01*
X1257Y750D02*
X1273Y750D01*
X108Y749D02*
X124Y749D01*
X157Y749D02*
X173Y749D01*
X208Y749D02*
X224Y749D01*
X257Y749D02*
X273Y749D01*
X308Y749D02*
X324Y749D01*
X357Y749D02*
X373Y749D01*
X408Y749D02*
X424Y749D01*
X457Y749D02*
X473Y749D01*
X508Y749D02*
X524Y749D01*
X557Y749D02*
X573Y749D01*
X608Y749D02*
X624Y749D01*
X657Y749D02*
X673Y749D01*
X708Y749D02*
X724Y749D01*
X757Y749D02*
X773Y749D01*
X808Y749D02*
X823Y749D01*
X857Y749D02*
X873Y749D01*
X908Y749D02*
X923Y749D01*
X957Y749D02*
X973Y749D01*
X1008Y749D02*
X1023Y749D01*
X1057Y749D02*
X1073Y749D01*
X1108Y749D02*
X1123Y749D01*
X1157Y749D02*
X1173Y749D01*
X1208Y749D02*
X1223Y749D01*
X1257Y749D02*
X1272Y749D01*
X108Y748D02*
X124Y748D01*
X157Y748D02*
X172Y748D01*
X208Y748D02*
X224Y748D01*
X257Y748D02*
X272Y748D01*
X308Y748D02*
X324Y748D01*
X357Y748D02*
X372Y748D01*
X408Y748D02*
X424Y748D01*
X457Y748D02*
X472Y748D01*
X508Y748D02*
X524Y748D01*
X557Y748D02*
X572Y748D01*
X608Y748D02*
X624Y748D01*
X657Y748D02*
X672Y748D01*
X708Y748D02*
X724Y748D01*
X757Y748D02*
X772Y748D01*
X808Y748D02*
X824Y748D01*
X857Y748D02*
X872Y748D01*
X908Y748D02*
X924Y748D01*
X957Y748D02*
X972Y748D01*
X1008Y748D02*
X1024Y748D01*
X1056Y748D02*
X1072Y748D01*
X1108Y748D02*
X1124Y748D01*
X1156Y748D02*
X1172Y748D01*
X1208Y748D02*
X1224Y748D01*
X1256Y748D02*
X1272Y748D01*
X109Y747D02*
X125Y747D01*
X156Y747D02*
X172Y747D01*
X209Y747D02*
X225Y747D01*
X256Y747D02*
X272Y747D01*
X309Y747D02*
X325Y747D01*
X356Y747D02*
X372Y747D01*
X409Y747D02*
X425Y747D01*
X456Y747D02*
X472Y747D01*
X509Y747D02*
X524Y747D01*
X556Y747D02*
X572Y747D01*
X609Y747D02*
X624Y747D01*
X656Y747D02*
X672Y747D01*
X709Y747D02*
X724Y747D01*
X756Y747D02*
X772Y747D01*
X809Y747D02*
X824Y747D01*
X856Y747D02*
X872Y747D01*
X909Y747D02*
X924Y747D01*
X956Y747D02*
X972Y747D01*
X1009Y747D02*
X1024Y747D01*
X1056Y747D02*
X1072Y747D01*
X1109Y747D02*
X1124Y747D01*
X1156Y747D02*
X1172Y747D01*
X1209Y747D02*
X1224Y747D01*
X1256Y747D02*
X1272Y747D01*
X109Y746D02*
X125Y746D01*
X155Y746D02*
X172Y746D01*
X209Y746D02*
X225Y746D01*
X255Y746D02*
X272Y746D01*
X309Y746D02*
X325Y746D01*
X355Y746D02*
X372Y746D01*
X409Y746D02*
X425Y746D01*
X455Y746D02*
X472Y746D01*
X509Y746D02*
X525Y746D01*
X555Y746D02*
X572Y746D01*
X609Y746D02*
X625Y746D01*
X655Y746D02*
X671Y746D01*
X709Y746D02*
X725Y746D01*
X755Y746D02*
X771Y746D01*
X809Y746D02*
X825Y746D01*
X855Y746D02*
X871Y746D01*
X909Y746D02*
X925Y746D01*
X955Y746D02*
X971Y746D01*
X1009Y746D02*
X1025Y746D01*
X1055Y746D02*
X1071Y746D01*
X1109Y746D02*
X1125Y746D01*
X1155Y746D02*
X1171Y746D01*
X1209Y746D02*
X1225Y746D01*
X1255Y746D02*
X1271Y746D01*
X110Y745D02*
X126Y745D01*
X154Y745D02*
X171Y745D01*
X210Y745D02*
X226Y745D01*
X254Y745D02*
X271Y745D01*
X310Y745D02*
X326Y745D01*
X354Y745D02*
X371Y745D01*
X410Y745D02*
X426Y745D01*
X454Y745D02*
X471Y745D01*
X510Y745D02*
X526Y745D01*
X554Y745D02*
X571Y745D01*
X610Y745D02*
X626Y745D01*
X654Y745D02*
X671Y745D01*
X709Y745D02*
X726Y745D01*
X754Y745D02*
X771Y745D01*
X809Y745D02*
X826Y745D01*
X854Y745D02*
X871Y745D01*
X909Y745D02*
X926Y745D01*
X954Y745D02*
X971Y745D01*
X1009Y745D02*
X1026Y745D01*
X1054Y745D02*
X1071Y745D01*
X1109Y745D02*
X1126Y745D01*
X1154Y745D02*
X1171Y745D01*
X1209Y745D02*
X1226Y745D01*
X1254Y745D02*
X1271Y745D01*
X110Y744D02*
X127Y744D01*
X153Y744D02*
X171Y744D01*
X210Y744D02*
X227Y744D01*
X253Y744D02*
X271Y744D01*
X310Y744D02*
X327Y744D01*
X353Y744D02*
X371Y744D01*
X410Y744D02*
X427Y744D01*
X453Y744D02*
X471Y744D01*
X510Y744D02*
X527Y744D01*
X553Y744D02*
X571Y744D01*
X610Y744D02*
X627Y744D01*
X653Y744D02*
X671Y744D01*
X710Y744D02*
X727Y744D01*
X753Y744D02*
X771Y744D01*
X810Y744D02*
X827Y744D01*
X853Y744D02*
X871Y744D01*
X910Y744D02*
X927Y744D01*
X953Y744D02*
X971Y744D01*
X1010Y744D02*
X1027Y744D01*
X1053Y744D02*
X1071Y744D01*
X1110Y744D02*
X1127Y744D01*
X1153Y744D02*
X1171Y744D01*
X1210Y744D02*
X1227Y744D01*
X1253Y744D02*
X1271Y744D01*
X110Y743D02*
X128Y743D01*
X152Y743D02*
X170Y743D01*
X210Y743D02*
X228Y743D01*
X252Y743D02*
X270Y743D01*
X310Y743D02*
X328Y743D01*
X352Y743D02*
X370Y743D01*
X410Y743D02*
X428Y743D01*
X452Y743D02*
X470Y743D01*
X510Y743D02*
X528Y743D01*
X552Y743D02*
X570Y743D01*
X610Y743D02*
X628Y743D01*
X652Y743D02*
X670Y743D01*
X710Y743D02*
X728Y743D01*
X752Y743D02*
X770Y743D01*
X810Y743D02*
X828Y743D01*
X852Y743D02*
X870Y743D01*
X910Y743D02*
X928Y743D01*
X952Y743D02*
X970Y743D01*
X1010Y743D02*
X1028Y743D01*
X1052Y743D02*
X1070Y743D01*
X1110Y743D02*
X1128Y743D01*
X1152Y743D02*
X1170Y743D01*
X1210Y743D02*
X1228Y743D01*
X1252Y743D02*
X1270Y743D01*
X111Y742D02*
X130Y742D01*
X150Y742D02*
X170Y742D01*
X211Y742D02*
X230Y742D01*
X250Y742D02*
X270Y742D01*
X311Y742D02*
X330Y742D01*
X350Y742D02*
X370Y742D01*
X411Y742D02*
X430Y742D01*
X450Y742D02*
X470Y742D01*
X511Y742D02*
X530Y742D01*
X550Y742D02*
X570Y742D01*
X611Y742D02*
X630Y742D01*
X650Y742D02*
X670Y742D01*
X711Y742D02*
X730Y742D01*
X750Y742D02*
X770Y742D01*
X811Y742D02*
X830Y742D01*
X850Y742D02*
X870Y742D01*
X911Y742D02*
X930Y742D01*
X950Y742D02*
X970Y742D01*
X1011Y742D02*
X1030Y742D01*
X1050Y742D02*
X1070Y742D01*
X1111Y742D02*
X1130Y742D01*
X1150Y742D02*
X1170Y742D01*
X1211Y742D02*
X1230Y742D01*
X1250Y742D02*
X1270Y742D01*
X112Y741D02*
X132Y741D01*
X148Y741D02*
X169Y741D01*
X212Y741D02*
X232Y741D01*
X248Y741D02*
X269Y741D01*
X312Y741D02*
X332Y741D01*
X348Y741D02*
X369Y741D01*
X412Y741D02*
X432Y741D01*
X448Y741D02*
X469Y741D01*
X512Y741D02*
X532Y741D01*
X548Y741D02*
X569Y741D01*
X612Y741D02*
X632Y741D01*
X648Y741D02*
X669Y741D01*
X712Y741D02*
X732Y741D01*
X748Y741D02*
X769Y741D01*
X812Y741D02*
X832Y741D01*
X848Y741D02*
X869Y741D01*
X912Y741D02*
X932Y741D01*
X948Y741D02*
X969Y741D01*
X1012Y741D02*
X1032Y741D01*
X1048Y741D02*
X1069Y741D01*
X1111Y741D02*
X1132Y741D01*
X1148Y741D02*
X1169Y741D01*
X1211Y741D02*
X1232Y741D01*
X1248Y741D02*
X1269Y741D01*
X112Y740D02*
X137Y740D01*
X144Y740D02*
X168Y740D01*
X212Y740D02*
X237Y740D01*
X244Y740D02*
X268Y740D01*
X312Y740D02*
X337Y740D01*
X344Y740D02*
X368Y740D01*
X412Y740D02*
X437Y740D01*
X444Y740D02*
X468Y740D01*
X512Y740D02*
X537Y740D01*
X544Y740D02*
X568Y740D01*
X612Y740D02*
X637Y740D01*
X644Y740D02*
X668Y740D01*
X712Y740D02*
X737Y740D01*
X744Y740D02*
X768Y740D01*
X812Y740D02*
X837Y740D01*
X844Y740D02*
X868Y740D01*
X912Y740D02*
X937Y740D01*
X944Y740D02*
X968Y740D01*
X1012Y740D02*
X1037Y740D01*
X1044Y740D02*
X1068Y740D01*
X1112Y740D02*
X1137Y740D01*
X1144Y740D02*
X1168Y740D01*
X1212Y740D02*
X1237Y740D01*
X1244Y740D02*
X1268Y740D01*
X113Y739D02*
X168Y739D01*
X213Y739D02*
X268Y739D01*
X313Y739D02*
X368Y739D01*
X413Y739D02*
X468Y739D01*
X513Y739D02*
X568Y739D01*
X613Y739D02*
X668Y739D01*
X713Y739D02*
X768Y739D01*
X813Y739D02*
X868Y739D01*
X913Y739D02*
X968Y739D01*
X1013Y739D02*
X1068Y739D01*
X1113Y739D02*
X1168Y739D01*
X1213Y739D02*
X1268Y739D01*
X114Y738D02*
X167Y738D01*
X214Y738D02*
X267Y738D01*
X314Y738D02*
X367Y738D01*
X414Y738D02*
X467Y738D01*
X514Y738D02*
X567Y738D01*
X614Y738D02*
X667Y738D01*
X714Y738D02*
X767Y738D01*
X814Y738D02*
X867Y738D01*
X913Y738D02*
X967Y738D01*
X1013Y738D02*
X1067Y738D01*
X1113Y738D02*
X1167Y738D01*
X1213Y738D02*
X1267Y738D01*
X114Y737D02*
X166Y737D01*
X214Y737D02*
X266Y737D01*
X314Y737D02*
X366Y737D01*
X414Y737D02*
X466Y737D01*
X514Y737D02*
X566Y737D01*
X614Y737D02*
X666Y737D01*
X714Y737D02*
X766Y737D01*
X814Y737D02*
X866Y737D01*
X914Y737D02*
X966Y737D01*
X1014Y737D02*
X1066Y737D01*
X1114Y737D02*
X1166Y737D01*
X1214Y737D02*
X1266Y737D01*
X115Y736D02*
X165Y736D01*
X215Y736D02*
X265Y736D01*
X315Y736D02*
X365Y736D01*
X415Y736D02*
X465Y736D01*
X515Y736D02*
X565Y736D01*
X615Y736D02*
X665Y736D01*
X715Y736D02*
X765Y736D01*
X815Y736D02*
X865Y736D01*
X915Y736D02*
X965Y736D01*
X1015Y736D02*
X1065Y736D01*
X1115Y736D02*
X1165Y736D01*
X1215Y736D02*
X1265Y736D01*
X116Y735D02*
X164Y735D01*
X216Y735D02*
X264Y735D01*
X316Y735D02*
X364Y735D01*
X416Y735D02*
X464Y735D01*
X516Y735D02*
X564Y735D01*
X616Y735D02*
X664Y735D01*
X716Y735D02*
X764Y735D01*
X816Y735D02*
X864Y735D01*
X916Y735D02*
X964Y735D01*
X1016Y735D02*
X1064Y735D01*
X1116Y735D02*
X1164Y735D01*
X1216Y735D02*
X1264Y735D01*
X117Y734D02*
X163Y734D01*
X217Y734D02*
X263Y734D01*
X317Y734D02*
X363Y734D01*
X417Y734D02*
X463Y734D01*
X517Y734D02*
X563Y734D01*
X617Y734D02*
X663Y734D01*
X717Y734D02*
X763Y734D01*
X817Y734D02*
X863Y734D01*
X917Y734D02*
X963Y734D01*
X1017Y734D02*
X1063Y734D01*
X1117Y734D02*
X1163Y734D01*
X1217Y734D02*
X1263Y734D01*
X118Y733D02*
X162Y733D01*
X218Y733D02*
X262Y733D01*
X318Y733D02*
X362Y733D01*
X418Y733D02*
X462Y733D01*
X518Y733D02*
X562Y733D01*
X618Y733D02*
X662Y733D01*
X718Y733D02*
X762Y733D01*
X818Y733D02*
X862Y733D01*
X918Y733D02*
X962Y733D01*
X1018Y733D02*
X1062Y733D01*
X1118Y733D02*
X1162Y733D01*
X1218Y733D02*
X1262Y733D01*
X119Y732D02*
X161Y732D01*
X219Y732D02*
X261Y732D01*
X319Y732D02*
X361Y732D01*
X419Y732D02*
X461Y732D01*
X519Y732D02*
X561Y732D01*
X619Y732D02*
X661Y732D01*
X719Y732D02*
X761Y732D01*
X819Y732D02*
X861Y732D01*
X919Y732D02*
X961Y732D01*
X1019Y732D02*
X1061Y732D01*
X1119Y732D02*
X1161Y732D01*
X1219Y732D02*
X1261Y732D01*
X120Y731D02*
X160Y731D01*
X220Y731D02*
X260Y731D01*
X320Y731D02*
X360Y731D01*
X420Y731D02*
X460Y731D01*
X520Y731D02*
X560Y731D01*
X620Y731D02*
X660Y731D01*
X720Y731D02*
X760Y731D01*
X820Y731D02*
X860Y731D01*
X920Y731D02*
X960Y731D01*
X1020Y731D02*
X1060Y731D01*
X1120Y731D02*
X1160Y731D01*
X1220Y731D02*
X1260Y731D01*
X122Y730D02*
X159Y730D01*
X222Y730D02*
X259Y730D01*
X322Y730D02*
X359Y730D01*
X422Y730D02*
X459Y730D01*
X522Y730D02*
X559Y730D01*
X622Y730D02*
X659Y730D01*
X722Y730D02*
X759Y730D01*
X822Y730D02*
X859Y730D01*
X922Y730D02*
X959Y730D01*
X1022Y730D02*
X1059Y730D01*
X1122Y730D02*
X1159Y730D01*
X1222Y730D02*
X1259Y730D01*
X123Y729D02*
X157Y729D01*
X223Y729D02*
X257Y729D01*
X323Y729D02*
X357Y729D01*
X423Y729D02*
X457Y729D01*
X523Y729D02*
X557Y729D01*
X623Y729D02*
X657Y729D01*
X723Y729D02*
X757Y729D01*
X823Y729D02*
X857Y729D01*
X923Y729D02*
X957Y729D01*
X1023Y729D02*
X1057Y729D01*
X1123Y729D02*
X1157Y729D01*
X1223Y729D02*
X1257Y729D01*
X125Y728D02*
X155Y728D01*
X225Y728D02*
X255Y728D01*
X325Y728D02*
X355Y728D01*
X425Y728D02*
X455Y728D01*
X525Y728D02*
X555Y728D01*
X625Y728D02*
X655Y728D01*
X725Y728D02*
X755Y728D01*
X825Y728D02*
X855Y728D01*
X925Y728D02*
X955Y728D01*
X1025Y728D02*
X1055Y728D01*
X1125Y728D02*
X1155Y728D01*
X1225Y728D02*
X1255Y728D01*
X127Y727D02*
X153Y727D01*
X227Y727D02*
X253Y727D01*
X327Y727D02*
X353Y727D01*
X427Y727D02*
X453Y727D01*
X527Y727D02*
X553Y727D01*
X627Y727D02*
X653Y727D01*
X727Y727D02*
X753Y727D01*
X827Y727D02*
X853Y727D01*
X927Y727D02*
X953Y727D01*
X1027Y727D02*
X1053Y727D01*
X1127Y727D02*
X1153Y727D01*
X1227Y727D02*
X1253Y727D01*
X129Y726D02*
X151Y726D01*
X229Y726D02*
X251Y726D01*
X329Y726D02*
X351Y726D01*
X429Y726D02*
X451Y726D01*
X529Y726D02*
X551Y726D01*
X629Y726D02*
X651Y726D01*
X729Y726D02*
X751Y726D01*
X829Y726D02*
X851Y726D01*
X929Y726D02*
X951Y726D01*
X1029Y726D02*
X1051Y726D01*
X1129Y726D02*
X1151Y726D01*
X1229Y726D02*
X1251Y726D01*
X132Y725D02*
X148Y725D01*
X232Y725D02*
X248Y725D01*
X332Y725D02*
X348Y725D01*
X432Y725D02*
X448Y725D01*
X532Y725D02*
X548Y725D01*
X632Y725D02*
X648Y725D01*
X732Y725D02*
X748Y725D01*
X832Y725D02*
X848Y725D01*
X932Y725D02*
X948Y725D01*
X1032Y725D02*
X1048Y725D01*
X1132Y725D02*
X1148Y725D01*
X1232Y725D02*
X1248Y725D01*
X137Y724D02*
X143Y724D01*
X237Y724D02*
X243Y724D01*
X337Y724D02*
X343Y724D01*
X437Y724D02*
X443Y724D01*
X537Y724D02*
X543Y724D01*
X637Y724D02*
X643Y724D01*
X737Y724D02*
X743Y724D01*
X837Y724D02*
X843Y724D01*
X937Y724D02*
X943Y724D01*
X1037Y724D02*
X1043Y724D01*
X1137Y724D02*
X1143Y724D01*
X1237Y724D02*
X1243Y724D01*
X933Y594D02*
X1022Y594D01*
X929Y593D02*
X1025Y593D01*
X926Y592D02*
X1028Y592D01*
X924Y591D02*
X1030Y591D01*
X922Y590D02*
X1032Y590D01*
X921Y589D02*
X1034Y589D01*
X919Y588D02*
X1035Y588D01*
X918Y587D02*
X1037Y587D01*
X917Y586D02*
X1038Y586D01*
X916Y585D02*
X1039Y585D01*
X915Y584D02*
X1040Y584D01*
X914Y583D02*
X1041Y583D01*
X913Y582D02*
X1042Y582D01*
X912Y581D02*
X1043Y581D01*
X911Y580D02*
X1043Y580D01*
X910Y579D02*
X934Y579D01*
X947Y579D02*
X1044Y579D01*
X910Y578D02*
X931Y578D01*
X950Y578D02*
X1045Y578D01*
X909Y577D02*
X929Y577D01*
X952Y577D02*
X1045Y577D01*
X909Y576D02*
X927Y576D01*
X953Y576D02*
X1046Y576D01*
X908Y575D02*
X926Y575D01*
X955Y575D02*
X1047Y575D01*
X908Y574D02*
X925Y574D01*
X956Y574D02*
X1047Y574D01*
X907Y573D02*
X924Y573D01*
X957Y573D02*
X1048Y573D01*
X907Y572D02*
X923Y572D01*
X958Y572D02*
X1048Y572D01*
X906Y571D02*
X922Y571D01*
X958Y571D02*
X1048Y571D01*
X906Y570D02*
X921Y570D01*
X959Y570D02*
X1049Y570D01*
X906Y569D02*
X921Y569D01*
X960Y569D02*
X1049Y569D01*
X905Y568D02*
X920Y568D01*
X960Y568D02*
X1049Y568D01*
X905Y567D02*
X920Y567D01*
X961Y567D02*
X1050Y567D01*
X905Y566D02*
X919Y566D01*
X961Y566D02*
X1050Y566D01*
X905Y565D02*
X919Y565D01*
X962Y565D02*
X1050Y565D01*
X904Y564D02*
X919Y564D01*
X962Y564D02*
X1050Y564D01*
X904Y563D02*
X918Y563D01*
X962Y563D02*
X1050Y563D01*
X904Y562D02*
X918Y562D01*
X962Y562D02*
X1051Y562D01*
X904Y561D02*
X918Y561D01*
X963Y561D02*
X1051Y561D01*
X904Y560D02*
X918Y560D01*
X963Y560D02*
X1051Y560D01*
X904Y559D02*
X918Y559D01*
X963Y559D02*
X1051Y559D01*
X904Y558D02*
X918Y558D01*
X963Y558D02*
X1051Y558D01*
X904Y557D02*
X918Y557D01*
X963Y557D02*
X1051Y557D01*
X904Y556D02*
X918Y556D01*
X963Y556D02*
X1051Y556D01*
X904Y555D02*
X918Y555D01*
X963Y555D02*
X1051Y555D01*
X904Y554D02*
X918Y554D01*
X962Y554D02*
X1051Y554D01*
X904Y553D02*
X918Y553D01*
X962Y553D02*
X1050Y553D01*
X904Y552D02*
X919Y552D01*
X962Y552D02*
X1050Y552D01*
X905Y551D02*
X919Y551D01*
X962Y551D02*
X1050Y551D01*
X905Y550D02*
X919Y550D01*
X961Y550D02*
X1050Y550D01*
X905Y549D02*
X920Y549D01*
X961Y549D02*
X1050Y549D01*
X905Y548D02*
X920Y548D01*
X960Y548D02*
X1049Y548D01*
X905Y547D02*
X921Y547D01*
X960Y547D02*
X1049Y547D01*
X906Y546D02*
X921Y546D01*
X959Y546D02*
X1049Y546D01*
X906Y545D02*
X922Y545D01*
X959Y545D02*
X1048Y545D01*
X907Y544D02*
X923Y544D01*
X958Y544D02*
X1048Y544D01*
X907Y543D02*
X924Y543D01*
X957Y543D02*
X1048Y543D01*
X907Y542D02*
X925Y542D01*
X956Y542D02*
X1047Y542D01*
X908Y541D02*
X926Y541D01*
X955Y541D02*
X1047Y541D01*
X908Y540D02*
X927Y540D01*
X953Y540D02*
X1046Y540D01*
X909Y539D02*
X929Y539D01*
X952Y539D02*
X1046Y539D01*
X910Y538D02*
X931Y538D01*
X950Y538D02*
X1045Y538D01*
X910Y537D02*
X933Y537D01*
X947Y537D02*
X1044Y537D01*
X911Y536D02*
X939Y536D01*
X942Y536D02*
X1044Y536D01*
X912Y535D02*
X1043Y535D01*
X913Y534D02*
X1042Y534D01*
X914Y533D02*
X1041Y533D01*
X914Y532D02*
X1040Y532D01*
X916Y531D02*
X1039Y531D01*
X917Y530D02*
X1038Y530D01*
X918Y529D02*
X1037Y529D01*
X919Y528D02*
X1035Y528D01*
X921Y527D02*
X1034Y527D01*
X922Y526D02*
X1032Y526D01*
X924Y525D02*
X1031Y525D01*
X926Y524D02*
X1029Y524D01*
X929Y523D02*
X1026Y523D01*
X932Y522D02*
X1022Y522D01*
X940Y521D02*
X1014Y521D01*
X932Y494D02*
X1022Y494D01*
X929Y493D02*
X1026Y493D01*
X926Y492D02*
X1028Y492D01*
X924Y491D02*
X1030Y491D01*
X922Y490D02*
X1032Y490D01*
X921Y489D02*
X1034Y489D01*
X919Y488D02*
X1035Y488D01*
X918Y487D02*
X1037Y487D01*
X917Y486D02*
X1038Y486D01*
X916Y485D02*
X1039Y485D01*
X915Y484D02*
X1040Y484D01*
X914Y483D02*
X1041Y483D01*
X913Y482D02*
X1042Y482D01*
X912Y481D02*
X1043Y481D01*
X911Y480D02*
X1044Y480D01*
X910Y479D02*
X934Y479D01*
X947Y479D02*
X1044Y479D01*
X910Y478D02*
X931Y478D01*
X950Y478D02*
X1045Y478D01*
X909Y477D02*
X929Y477D01*
X952Y477D02*
X1046Y477D01*
X909Y476D02*
X927Y476D01*
X953Y476D02*
X1046Y476D01*
X908Y475D02*
X926Y475D01*
X955Y475D02*
X1047Y475D01*
X908Y474D02*
X925Y474D01*
X956Y474D02*
X1047Y474D01*
X907Y473D02*
X924Y473D01*
X957Y473D02*
X1048Y473D01*
X907Y472D02*
X923Y472D01*
X958Y472D02*
X1048Y472D01*
X906Y471D02*
X922Y471D01*
X959Y471D02*
X1048Y471D01*
X906Y470D02*
X921Y470D01*
X959Y470D02*
X1049Y470D01*
X906Y469D02*
X921Y469D01*
X960Y469D02*
X1049Y469D01*
X905Y468D02*
X920Y468D01*
X960Y468D02*
X1049Y468D01*
X905Y467D02*
X920Y467D01*
X961Y467D02*
X1050Y467D01*
X905Y466D02*
X919Y466D01*
X961Y466D02*
X1050Y466D01*
X905Y465D02*
X919Y465D01*
X962Y465D02*
X1050Y465D01*
X904Y464D02*
X919Y464D01*
X962Y464D02*
X1050Y464D01*
X904Y463D02*
X918Y463D01*
X962Y463D02*
X1050Y463D01*
X904Y462D02*
X918Y462D01*
X962Y462D02*
X1051Y462D01*
X904Y461D02*
X918Y461D01*
X963Y461D02*
X1051Y461D01*
X904Y460D02*
X918Y460D01*
X963Y460D02*
X1051Y460D01*
X904Y459D02*
X918Y459D01*
X963Y459D02*
X1051Y459D01*
X904Y458D02*
X918Y458D01*
X963Y458D02*
X1051Y458D01*
X904Y457D02*
X918Y457D01*
X963Y457D02*
X1051Y457D01*
X904Y456D02*
X918Y456D01*
X963Y456D02*
X1051Y456D01*
X904Y455D02*
X918Y455D01*
X963Y455D02*
X1051Y455D01*
X904Y454D02*
X918Y454D01*
X962Y454D02*
X1051Y454D01*
X904Y453D02*
X918Y453D01*
X962Y453D02*
X1050Y453D01*
X904Y452D02*
X919Y452D01*
X962Y452D02*
X1050Y452D01*
X905Y451D02*
X919Y451D01*
X962Y451D02*
X1050Y451D01*
X905Y450D02*
X919Y450D01*
X961Y450D02*
X1050Y450D01*
X905Y449D02*
X920Y449D01*
X961Y449D02*
X1050Y449D01*
X905Y448D02*
X920Y448D01*
X960Y448D02*
X1049Y448D01*
X906Y447D02*
X921Y447D01*
X960Y447D02*
X1049Y447D01*
X906Y446D02*
X921Y446D01*
X959Y446D02*
X1049Y446D01*
X906Y445D02*
X922Y445D01*
X958Y445D02*
X1048Y445D01*
X907Y444D02*
X923Y444D01*
X958Y444D02*
X1048Y444D01*
X907Y443D02*
X924Y443D01*
X957Y443D02*
X1048Y443D01*
X908Y442D02*
X925Y442D01*
X956Y442D02*
X1047Y442D01*
X908Y441D02*
X926Y441D01*
X955Y441D02*
X1047Y441D01*
X909Y440D02*
X927Y440D01*
X953Y440D02*
X1046Y440D01*
X909Y439D02*
X929Y439D01*
X952Y439D02*
X1046Y439D01*
X910Y438D02*
X931Y438D01*
X950Y438D02*
X1045Y438D01*
X910Y437D02*
X934Y437D01*
X947Y437D02*
X1044Y437D01*
X911Y436D02*
X1044Y436D01*
X912Y435D02*
X1043Y435D01*
X913Y434D02*
X1042Y434D01*
X914Y433D02*
X1041Y433D01*
X915Y432D02*
X1040Y432D01*
X916Y431D02*
X1039Y431D01*
X917Y430D02*
X1038Y430D01*
X918Y429D02*
X1037Y429D01*
X919Y428D02*
X1035Y428D01*
X921Y427D02*
X1034Y427D01*
X922Y426D02*
X1032Y426D01*
X924Y425D02*
X1030Y425D01*
X926Y424D02*
X1028Y424D01*
X929Y423D02*
X1026Y423D01*
X933Y422D02*
X1022Y422D01*
X939Y395D02*
X1015Y395D01*
X932Y394D02*
X1023Y394D01*
X929Y393D02*
X1026Y393D01*
X926Y392D02*
X1029Y392D01*
X924Y391D02*
X1031Y391D01*
X922Y390D02*
X1032Y390D01*
X921Y389D02*
X1034Y389D01*
X919Y388D02*
X1036Y388D01*
X918Y387D02*
X1037Y387D01*
X917Y386D02*
X1038Y386D01*
X915Y385D02*
X1039Y385D01*
X914Y384D02*
X1040Y384D01*
X914Y383D02*
X1041Y383D01*
X913Y382D02*
X1042Y382D01*
X912Y381D02*
X1043Y381D01*
X911Y380D02*
X938Y380D01*
X943Y380D02*
X1044Y380D01*
X910Y379D02*
X933Y379D01*
X947Y379D02*
X1044Y379D01*
X910Y378D02*
X931Y378D01*
X950Y378D02*
X1045Y378D01*
X909Y377D02*
X929Y377D01*
X952Y377D02*
X1046Y377D01*
X908Y376D02*
X927Y376D01*
X954Y376D02*
X1046Y376D01*
X908Y375D02*
X926Y375D01*
X955Y375D02*
X1047Y375D01*
X907Y374D02*
X925Y374D01*
X956Y374D02*
X1047Y374D01*
X907Y373D02*
X924Y373D01*
X957Y373D02*
X1048Y373D01*
X907Y372D02*
X923Y372D01*
X958Y372D02*
X1048Y372D01*
X906Y371D02*
X922Y371D01*
X959Y371D02*
X1048Y371D01*
X906Y370D02*
X921Y370D01*
X959Y370D02*
X1049Y370D01*
X905Y369D02*
X921Y369D01*
X960Y369D02*
X1049Y369D01*
X905Y368D02*
X920Y368D01*
X960Y368D02*
X1049Y368D01*
X905Y367D02*
X920Y367D01*
X961Y367D02*
X1050Y367D01*
X905Y366D02*
X919Y366D01*
X961Y366D02*
X1050Y366D01*
X905Y365D02*
X919Y365D01*
X962Y365D02*
X1050Y365D01*
X904Y364D02*
X919Y364D01*
X962Y364D02*
X1050Y364D01*
X904Y363D02*
X918Y363D01*
X962Y363D02*
X1050Y363D01*
X904Y362D02*
X918Y362D01*
X962Y362D02*
X1051Y362D01*
X904Y361D02*
X918Y361D01*
X963Y361D02*
X1051Y361D01*
X904Y360D02*
X918Y360D01*
X963Y360D02*
X1051Y360D01*
X904Y359D02*
X918Y359D01*
X963Y359D02*
X1051Y359D01*
X904Y358D02*
X918Y358D01*
X963Y358D02*
X1051Y358D01*
X904Y357D02*
X918Y357D01*
X963Y357D02*
X1051Y357D01*
X904Y356D02*
X918Y356D01*
X963Y356D02*
X1051Y356D01*
X904Y355D02*
X918Y355D01*
X963Y355D02*
X1051Y355D01*
X904Y354D02*
X918Y354D01*
X962Y354D02*
X1051Y354D01*
X904Y353D02*
X918Y353D01*
X962Y353D02*
X1050Y353D01*
X904Y352D02*
X919Y352D01*
X962Y352D02*
X1050Y352D01*
X905Y351D02*
X919Y351D01*
X962Y351D02*
X1050Y351D01*
X905Y350D02*
X919Y350D01*
X961Y350D02*
X1050Y350D01*
X905Y349D02*
X920Y349D01*
X961Y349D02*
X1050Y349D01*
X905Y348D02*
X920Y348D01*
X960Y348D02*
X1049Y348D01*
X906Y347D02*
X921Y347D01*
X960Y347D02*
X1049Y347D01*
X906Y346D02*
X922Y346D01*
X959Y346D02*
X1049Y346D01*
X906Y345D02*
X922Y345D01*
X958Y345D02*
X1048Y345D01*
X907Y344D02*
X923Y344D01*
X958Y344D02*
X1048Y344D01*
X907Y343D02*
X924Y343D01*
X957Y343D02*
X1048Y343D01*
X908Y342D02*
X925Y342D01*
X956Y342D02*
X1047Y342D01*
X908Y341D02*
X926Y341D01*
X954Y341D02*
X1047Y341D01*
X909Y340D02*
X927Y340D01*
X953Y340D02*
X1046Y340D01*
X909Y339D02*
X929Y339D01*
X952Y339D02*
X1045Y339D01*
X910Y338D02*
X931Y338D01*
X950Y338D02*
X1045Y338D01*
X910Y337D02*
X934Y337D01*
X947Y337D02*
X1044Y337D01*
X911Y336D02*
X1043Y336D01*
X912Y335D02*
X1043Y335D01*
X913Y334D02*
X1042Y334D01*
X914Y333D02*
X1041Y333D01*
X915Y332D02*
X1040Y332D01*
X916Y331D02*
X1039Y331D01*
X917Y330D02*
X1038Y330D01*
X918Y329D02*
X1037Y329D01*
X919Y328D02*
X1035Y328D01*
X921Y327D02*
X1034Y327D01*
X923Y326D02*
X1032Y326D01*
X924Y325D02*
X1030Y325D01*
X927Y324D02*
X1028Y324D01*
X929Y323D02*
X1025Y323D01*
X933Y322D02*
X1022Y322D01*
X938Y295D02*
X1017Y295D01*
X932Y294D02*
X1023Y294D01*
X928Y293D02*
X1026Y293D01*
X926Y292D02*
X1029Y292D01*
X924Y291D02*
X1031Y291D01*
X922Y290D02*
X1033Y290D01*
X920Y289D02*
X1034Y289D01*
X919Y288D02*
X1036Y288D01*
X918Y287D02*
X1037Y287D01*
X917Y286D02*
X1038Y286D01*
X915Y285D02*
X1039Y285D01*
X914Y284D02*
X1040Y284D01*
X913Y283D02*
X1041Y283D01*
X913Y282D02*
X1042Y282D01*
X912Y281D02*
X1043Y281D01*
X911Y280D02*
X937Y280D01*
X943Y280D02*
X1044Y280D01*
X910Y279D02*
X933Y279D01*
X948Y279D02*
X1044Y279D01*
X910Y278D02*
X930Y278D01*
X950Y278D02*
X1045Y278D01*
X909Y277D02*
X929Y277D01*
X952Y277D02*
X1046Y277D01*
X908Y276D02*
X927Y276D01*
X954Y276D02*
X1046Y276D01*
X908Y275D02*
X926Y275D01*
X955Y275D02*
X1047Y275D01*
X907Y274D02*
X925Y274D01*
X956Y274D02*
X1047Y274D01*
X907Y273D02*
X924Y273D01*
X957Y273D02*
X1048Y273D01*
X907Y272D02*
X923Y272D01*
X958Y272D02*
X1048Y272D01*
X906Y271D02*
X922Y271D01*
X959Y271D02*
X1049Y271D01*
X906Y270D02*
X921Y270D01*
X959Y270D02*
X1049Y270D01*
X905Y269D02*
X921Y269D01*
X960Y269D02*
X1049Y269D01*
X905Y268D02*
X920Y268D01*
X960Y268D02*
X1049Y268D01*
X905Y267D02*
X920Y267D01*
X961Y267D02*
X1050Y267D01*
X905Y266D02*
X919Y266D01*
X961Y266D02*
X1050Y266D01*
X904Y265D02*
X919Y265D01*
X962Y265D02*
X1050Y265D01*
X904Y264D02*
X919Y264D01*
X962Y264D02*
X1050Y264D01*
X904Y263D02*
X918Y263D01*
X962Y263D02*
X1050Y263D01*
X904Y262D02*
X918Y262D01*
X962Y262D02*
X1051Y262D01*
X904Y261D02*
X918Y261D01*
X963Y261D02*
X1051Y261D01*
X904Y260D02*
X918Y260D01*
X963Y260D02*
X1051Y260D01*
X904Y259D02*
X918Y259D01*
X963Y259D02*
X1051Y259D01*
X904Y258D02*
X918Y258D01*
X963Y258D02*
X1051Y258D01*
X904Y257D02*
X918Y257D01*
X963Y257D02*
X1051Y257D01*
X904Y256D02*
X918Y256D01*
X963Y256D02*
X1051Y256D01*
X904Y255D02*
X918Y255D01*
X963Y255D02*
X1051Y255D01*
X904Y254D02*
X918Y254D01*
X962Y254D02*
X1051Y254D01*
X904Y253D02*
X919Y253D01*
X962Y253D02*
X1050Y253D01*
X904Y252D02*
X919Y252D01*
X962Y252D02*
X1050Y252D01*
X905Y251D02*
X919Y251D01*
X962Y251D02*
X1050Y251D01*
X905Y250D02*
X919Y250D01*
X961Y250D02*
X1050Y250D01*
X905Y249D02*
X920Y249D01*
X961Y249D02*
X1050Y249D01*
X905Y248D02*
X920Y248D01*
X960Y248D02*
X1049Y248D01*
X906Y247D02*
X921Y247D01*
X960Y247D02*
X1049Y247D01*
X906Y246D02*
X922Y246D01*
X959Y246D02*
X1049Y246D01*
X906Y245D02*
X922Y245D01*
X958Y245D02*
X1048Y245D01*
X907Y244D02*
X923Y244D01*
X957Y244D02*
X1048Y244D01*
X907Y243D02*
X924Y243D01*
X957Y243D02*
X1048Y243D01*
X908Y242D02*
X925Y242D01*
X956Y242D02*
X1047Y242D01*
X908Y241D02*
X926Y241D01*
X954Y241D02*
X1047Y241D01*
X909Y240D02*
X928Y240D01*
X953Y240D02*
X1046Y240D01*
X909Y239D02*
X929Y239D01*
X951Y239D02*
X1045Y239D01*
X910Y238D02*
X931Y238D01*
X949Y238D02*
X1045Y238D01*
X911Y237D02*
X934Y237D01*
X946Y237D02*
X1044Y237D01*
X911Y236D02*
X1043Y236D01*
X912Y235D02*
X1043Y235D01*
X913Y234D02*
X1042Y234D01*
X914Y233D02*
X1041Y233D01*
X915Y232D02*
X1040Y232D01*
X916Y231D02*
X1039Y231D01*
X917Y230D02*
X1038Y230D01*
X918Y229D02*
X1036Y229D01*
X920Y228D02*
X1035Y228D01*
X921Y227D02*
X1034Y227D01*
X923Y226D02*
X1032Y226D01*
X925Y225D02*
X1030Y225D01*
X927Y224D02*
X1028Y224D01*
X930Y223D02*
X1025Y223D01*
X933Y222D02*
X1021Y222D01*
X937Y195D02*
X1018Y195D01*
X931Y194D02*
X1023Y194D01*
X928Y193D02*
X1026Y193D01*
X926Y192D02*
X1029Y192D01*
X924Y191D02*
X1031Y191D01*
X922Y190D02*
X1033Y190D01*
X920Y189D02*
X1034Y189D01*
X919Y188D02*
X1036Y188D01*
X918Y187D02*
X1037Y187D01*
X916Y186D02*
X1038Y186D01*
X915Y185D02*
X1039Y185D01*
X914Y184D02*
X1040Y184D01*
X913Y183D02*
X1041Y183D01*
X912Y182D02*
X1042Y182D01*
X912Y181D02*
X1043Y181D01*
X911Y180D02*
X937Y180D01*
X944Y180D02*
X1044Y180D01*
X910Y179D02*
X933Y179D01*
X948Y179D02*
X1044Y179D01*
X910Y178D02*
X930Y178D01*
X950Y178D02*
X1045Y178D01*
X909Y177D02*
X928Y177D01*
X952Y177D02*
X1046Y177D01*
X908Y176D02*
X927Y176D01*
X954Y176D02*
X1046Y176D01*
X908Y175D02*
X926Y175D01*
X955Y175D02*
X1047Y175D01*
X907Y174D02*
X925Y174D01*
X956Y174D02*
X1047Y174D01*
X907Y173D02*
X924Y173D01*
X957Y173D02*
X1048Y173D01*
X906Y172D02*
X923Y172D01*
X958Y172D02*
X1048Y172D01*
X906Y171D02*
X922Y171D01*
X959Y171D02*
X1049Y171D01*
X906Y170D02*
X921Y170D01*
X959Y170D02*
X1049Y170D01*
X905Y169D02*
X921Y169D01*
X960Y169D02*
X1049Y169D01*
X905Y168D02*
X920Y168D01*
X960Y168D02*
X1050Y168D01*
X905Y167D02*
X920Y167D01*
X961Y167D02*
X1050Y167D01*
X905Y166D02*
X919Y166D01*
X961Y166D02*
X1050Y166D01*
X904Y165D02*
X919Y165D01*
X962Y165D02*
X1050Y165D01*
X904Y164D02*
X919Y164D01*
X962Y164D02*
X1050Y164D01*
X904Y163D02*
X918Y163D01*
X962Y163D02*
X1050Y163D01*
X904Y162D02*
X918Y162D01*
X962Y162D02*
X1051Y162D01*
X904Y161D02*
X918Y161D01*
X963Y161D02*
X1051Y161D01*
X904Y160D02*
X918Y160D01*
X963Y160D02*
X1051Y160D01*
X904Y159D02*
X918Y159D01*
X963Y159D02*
X1051Y159D01*
X904Y158D02*
X918Y158D01*
X963Y158D02*
X1051Y158D01*
X904Y157D02*
X918Y157D01*
X963Y157D02*
X1051Y157D01*
X904Y156D02*
X918Y156D01*
X963Y156D02*
X1051Y156D01*
X904Y155D02*
X918Y155D01*
X963Y155D02*
X1051Y155D01*
X904Y154D02*
X918Y154D01*
X962Y154D02*
X1051Y154D01*
X904Y153D02*
X919Y153D01*
X962Y153D02*
X1050Y153D01*
X904Y152D02*
X919Y152D01*
X962Y152D02*
X1050Y152D01*
X905Y151D02*
X919Y151D01*
X961Y151D02*
X1050Y151D01*
X905Y150D02*
X920Y150D01*
X961Y150D02*
X1050Y150D01*
X905Y149D02*
X920Y149D01*
X961Y149D02*
X1050Y149D01*
X905Y148D02*
X921Y148D01*
X960Y148D02*
X1049Y148D01*
X906Y147D02*
X921Y147D01*
X960Y147D02*
X1049Y147D01*
X906Y146D02*
X922Y146D01*
X959Y146D02*
X1049Y146D01*
X906Y145D02*
X922Y145D01*
X958Y145D02*
X1048Y145D01*
X907Y144D02*
X923Y144D01*
X957Y144D02*
X1048Y144D01*
X907Y143D02*
X924Y143D01*
X957Y143D02*
X1047Y143D01*
X908Y142D02*
X925Y142D01*
X955Y142D02*
X1047Y142D01*
X908Y141D02*
X926Y141D01*
X954Y141D02*
X1047Y141D01*
X909Y140D02*
X928Y140D01*
X953Y140D02*
X1046Y140D01*
X909Y139D02*
X930Y139D01*
X951Y139D02*
X1045Y139D01*
X910Y138D02*
X931Y138D01*
X949Y138D02*
X1045Y138D01*
X911Y137D02*
X935Y137D01*
X946Y137D02*
X1044Y137D01*
X911Y136D02*
X1043Y136D01*
X912Y135D02*
X1043Y135D01*
X913Y134D02*
X1042Y134D01*
X914Y133D02*
X1041Y133D01*
X915Y132D02*
X1040Y132D01*
X916Y131D02*
X1039Y131D01*
X917Y130D02*
X1038Y130D01*
X918Y129D02*
X1036Y129D01*
X920Y128D02*
X1035Y128D01*
X921Y127D02*
X1033Y127D01*
X923Y126D02*
X1032Y126D01*
X925Y125D02*
X1030Y125D01*
X927Y124D02*
X1028Y124D01*
X930Y123D02*
X1025Y123D01*
X934Y122D02*
X1021Y122D01*
X137Y92D02*
X144Y92D01*
X237Y92D02*
X244Y92D01*
X337Y92D02*
X344Y92D01*
X437Y92D02*
X444Y92D01*
X537Y92D02*
X544Y92D01*
X637Y92D02*
X644Y92D01*
X737Y92D02*
X744Y92D01*
X837Y92D02*
X844Y92D01*
X937Y92D02*
X944Y92D01*
X1037Y92D02*
X1044Y92D01*
X1137Y92D02*
X1144Y92D01*
X1237Y92D02*
X1244Y92D01*
X132Y91D02*
X148Y91D01*
X232Y91D02*
X248Y91D01*
X332Y91D02*
X348Y91D01*
X432Y91D02*
X448Y91D01*
X532Y91D02*
X548Y91D01*
X632Y91D02*
X648Y91D01*
X732Y91D02*
X748Y91D01*
X832Y91D02*
X848Y91D01*
X932Y91D02*
X948Y91D01*
X1032Y91D02*
X1048Y91D01*
X1132Y91D02*
X1148Y91D01*
X1232Y91D02*
X1248Y91D01*
X129Y90D02*
X151Y90D01*
X229Y90D02*
X251Y90D01*
X329Y90D02*
X351Y90D01*
X429Y90D02*
X451Y90D01*
X529Y90D02*
X551Y90D01*
X629Y90D02*
X651Y90D01*
X729Y90D02*
X751Y90D01*
X829Y90D02*
X851Y90D01*
X929Y90D02*
X951Y90D01*
X1029Y90D02*
X1051Y90D01*
X1129Y90D02*
X1151Y90D01*
X1229Y90D02*
X1251Y90D01*
X127Y89D02*
X153Y89D01*
X227Y89D02*
X253Y89D01*
X327Y89D02*
X353Y89D01*
X427Y89D02*
X453Y89D01*
X527Y89D02*
X553Y89D01*
X627Y89D02*
X653Y89D01*
X727Y89D02*
X753Y89D01*
X827Y89D02*
X853Y89D01*
X927Y89D02*
X953Y89D01*
X1027Y89D02*
X1053Y89D01*
X1127Y89D02*
X1153Y89D01*
X1227Y89D02*
X1253Y89D01*
X125Y88D02*
X155Y88D01*
X225Y88D02*
X255Y88D01*
X325Y88D02*
X355Y88D01*
X425Y88D02*
X455Y88D01*
X525Y88D02*
X555Y88D01*
X625Y88D02*
X655Y88D01*
X725Y88D02*
X755Y88D01*
X825Y88D02*
X855Y88D01*
X925Y88D02*
X955Y88D01*
X1025Y88D02*
X1055Y88D01*
X1125Y88D02*
X1155Y88D01*
X1225Y88D02*
X1255Y88D01*
X123Y87D02*
X157Y87D01*
X223Y87D02*
X257Y87D01*
X323Y87D02*
X357Y87D01*
X423Y87D02*
X457Y87D01*
X523Y87D02*
X557Y87D01*
X623Y87D02*
X657Y87D01*
X723Y87D02*
X757Y87D01*
X823Y87D02*
X857Y87D01*
X923Y87D02*
X957Y87D01*
X1023Y87D02*
X1057Y87D01*
X1123Y87D02*
X1157Y87D01*
X1223Y87D02*
X1257Y87D01*
X122Y86D02*
X158Y86D01*
X222Y86D02*
X258Y86D01*
X322Y86D02*
X358Y86D01*
X422Y86D02*
X458Y86D01*
X522Y86D02*
X558Y86D01*
X622Y86D02*
X658Y86D01*
X722Y86D02*
X758Y86D01*
X822Y86D02*
X858Y86D01*
X922Y86D02*
X958Y86D01*
X1022Y86D02*
X1058Y86D01*
X1122Y86D02*
X1158Y86D01*
X1222Y86D02*
X1258Y86D01*
X121Y85D02*
X160Y85D01*
X221Y85D02*
X260Y85D01*
X321Y85D02*
X360Y85D01*
X421Y85D02*
X460Y85D01*
X521Y85D02*
X560Y85D01*
X621Y85D02*
X660Y85D01*
X721Y85D02*
X760Y85D01*
X821Y85D02*
X860Y85D01*
X921Y85D02*
X960Y85D01*
X1021Y85D02*
X1060Y85D01*
X1121Y85D02*
X1160Y85D01*
X1221Y85D02*
X1260Y85D01*
X119Y84D02*
X161Y84D01*
X219Y84D02*
X261Y84D01*
X319Y84D02*
X361Y84D01*
X419Y84D02*
X461Y84D01*
X519Y84D02*
X561Y84D01*
X619Y84D02*
X661Y84D01*
X719Y84D02*
X761Y84D01*
X819Y84D02*
X861Y84D01*
X919Y84D02*
X961Y84D01*
X1019Y84D02*
X1061Y84D01*
X1119Y84D02*
X1161Y84D01*
X1219Y84D02*
X1261Y84D01*
X118Y83D02*
X162Y83D01*
X218Y83D02*
X262Y83D01*
X318Y83D02*
X362Y83D01*
X418Y83D02*
X462Y83D01*
X518Y83D02*
X562Y83D01*
X618Y83D02*
X662Y83D01*
X718Y83D02*
X762Y83D01*
X818Y83D02*
X862Y83D01*
X918Y83D02*
X962Y83D01*
X1018Y83D02*
X1062Y83D01*
X1118Y83D02*
X1162Y83D01*
X1218Y83D02*
X1262Y83D01*
X117Y82D02*
X163Y82D01*
X217Y82D02*
X263Y82D01*
X317Y82D02*
X363Y82D01*
X417Y82D02*
X463Y82D01*
X517Y82D02*
X563Y82D01*
X617Y82D02*
X663Y82D01*
X717Y82D02*
X763Y82D01*
X817Y82D02*
X863Y82D01*
X917Y82D02*
X963Y82D01*
X1017Y82D02*
X1063Y82D01*
X1117Y82D02*
X1163Y82D01*
X1217Y82D02*
X1263Y82D01*
X116Y81D02*
X164Y81D01*
X216Y81D02*
X264Y81D01*
X316Y81D02*
X364Y81D01*
X416Y81D02*
X464Y81D01*
X516Y81D02*
X564Y81D01*
X616Y81D02*
X664Y81D01*
X716Y81D02*
X764Y81D01*
X816Y81D02*
X864Y81D01*
X916Y81D02*
X964Y81D01*
X1016Y81D02*
X1064Y81D01*
X1116Y81D02*
X1164Y81D01*
X1216Y81D02*
X1264Y81D01*
X115Y80D02*
X165Y80D01*
X215Y80D02*
X265Y80D01*
X315Y80D02*
X365Y80D01*
X415Y80D02*
X465Y80D01*
X515Y80D02*
X565Y80D01*
X615Y80D02*
X665Y80D01*
X715Y80D02*
X765Y80D01*
X815Y80D02*
X865Y80D01*
X915Y80D02*
X965Y80D01*
X1015Y80D02*
X1065Y80D01*
X1115Y80D02*
X1165Y80D01*
X1215Y80D02*
X1265Y80D01*
X115Y79D02*
X166Y79D01*
X215Y79D02*
X266Y79D01*
X315Y79D02*
X366Y79D01*
X415Y79D02*
X466Y79D01*
X515Y79D02*
X566Y79D01*
X615Y79D02*
X666Y79D01*
X714Y79D02*
X766Y79D01*
X814Y79D02*
X866Y79D01*
X914Y79D02*
X966Y79D01*
X1014Y79D02*
X1066Y79D01*
X1114Y79D02*
X1166Y79D01*
X1214Y79D02*
X1266Y79D01*
X114Y78D02*
X167Y78D01*
X214Y78D02*
X267Y78D01*
X314Y78D02*
X367Y78D01*
X414Y78D02*
X467Y78D01*
X514Y78D02*
X567Y78D01*
X614Y78D02*
X667Y78D01*
X714Y78D02*
X767Y78D01*
X814Y78D02*
X867Y78D01*
X914Y78D02*
X967Y78D01*
X1014Y78D02*
X1067Y78D01*
X1114Y78D02*
X1167Y78D01*
X1214Y78D02*
X1267Y78D01*
X113Y77D02*
X168Y77D01*
X213Y77D02*
X267Y77D01*
X313Y77D02*
X367Y77D01*
X413Y77D02*
X467Y77D01*
X513Y77D02*
X567Y77D01*
X613Y77D02*
X667Y77D01*
X713Y77D02*
X767Y77D01*
X813Y77D02*
X867Y77D01*
X913Y77D02*
X967Y77D01*
X1013Y77D02*
X1067Y77D01*
X1113Y77D02*
X1167Y77D01*
X1213Y77D02*
X1267Y77D01*
X112Y76D02*
X136Y76D01*
X145Y76D02*
X168Y76D01*
X212Y76D02*
X236Y76D01*
X245Y76D02*
X268Y76D01*
X312Y76D02*
X336Y76D01*
X345Y76D02*
X368Y76D01*
X412Y76D02*
X436Y76D01*
X445Y76D02*
X468Y76D01*
X512Y76D02*
X536Y76D01*
X545Y76D02*
X568Y76D01*
X612Y76D02*
X636Y76D01*
X645Y76D02*
X668Y76D01*
X712Y76D02*
X736Y76D01*
X745Y76D02*
X768Y76D01*
X812Y76D02*
X836Y76D01*
X845Y76D02*
X868Y76D01*
X912Y76D02*
X936Y76D01*
X945Y76D02*
X968Y76D01*
X1012Y76D02*
X1036Y76D01*
X1045Y76D02*
X1068Y76D01*
X1112Y76D02*
X1136Y76D01*
X1145Y76D02*
X1168Y76D01*
X1212Y76D02*
X1236Y76D01*
X1245Y76D02*
X1268Y76D01*
X112Y75D02*
X132Y75D01*
X148Y75D02*
X169Y75D01*
X212Y75D02*
X232Y75D01*
X248Y75D02*
X269Y75D01*
X312Y75D02*
X332Y75D01*
X348Y75D02*
X369Y75D01*
X412Y75D02*
X432Y75D01*
X448Y75D02*
X469Y75D01*
X512Y75D02*
X532Y75D01*
X548Y75D02*
X569Y75D01*
X612Y75D02*
X632Y75D01*
X648Y75D02*
X669Y75D01*
X712Y75D02*
X732Y75D01*
X748Y75D02*
X769Y75D01*
X812Y75D02*
X832Y75D01*
X848Y75D02*
X869Y75D01*
X912Y75D02*
X932Y75D01*
X948Y75D02*
X969Y75D01*
X1012Y75D02*
X1032Y75D01*
X1048Y75D02*
X1069Y75D01*
X1112Y75D02*
X1132Y75D01*
X1148Y75D02*
X1169Y75D01*
X1212Y75D02*
X1232Y75D01*
X1248Y75D02*
X1269Y75D01*
X111Y74D02*
X130Y74D01*
X150Y74D02*
X169Y74D01*
X211Y74D02*
X230Y74D01*
X250Y74D02*
X269Y74D01*
X311Y74D02*
X330Y74D01*
X350Y74D02*
X369Y74D01*
X411Y74D02*
X430Y74D01*
X450Y74D02*
X469Y74D01*
X511Y74D02*
X530Y74D01*
X550Y74D02*
X569Y74D01*
X611Y74D02*
X630Y74D01*
X650Y74D02*
X669Y74D01*
X711Y74D02*
X730Y74D01*
X750Y74D02*
X769Y74D01*
X811Y74D02*
X830Y74D01*
X850Y74D02*
X869Y74D01*
X911Y74D02*
X930Y74D01*
X950Y74D02*
X969Y74D01*
X1011Y74D02*
X1030Y74D01*
X1050Y74D02*
X1069Y74D01*
X1111Y74D02*
X1130Y74D01*
X1150Y74D02*
X1169Y74D01*
X1211Y74D02*
X1230Y74D01*
X1250Y74D02*
X1269Y74D01*
X111Y73D02*
X129Y73D01*
X152Y73D02*
X170Y73D01*
X211Y73D02*
X229Y73D01*
X252Y73D02*
X270Y73D01*
X311Y73D02*
X329Y73D01*
X352Y73D02*
X370Y73D01*
X411Y73D02*
X428Y73D01*
X452Y73D02*
X470Y73D01*
X511Y73D02*
X528Y73D01*
X552Y73D02*
X570Y73D01*
X611Y73D02*
X628Y73D01*
X652Y73D02*
X670Y73D01*
X711Y73D02*
X728Y73D01*
X752Y73D02*
X770Y73D01*
X811Y73D02*
X828Y73D01*
X852Y73D02*
X870Y73D01*
X911Y73D02*
X928Y73D01*
X952Y73D02*
X970Y73D01*
X1011Y73D02*
X1028Y73D01*
X1052Y73D02*
X1070Y73D01*
X1111Y73D02*
X1128Y73D01*
X1152Y73D02*
X1170Y73D01*
X1211Y73D02*
X1228Y73D01*
X1252Y73D02*
X1270Y73D01*
X110Y72D02*
X127Y72D01*
X153Y72D02*
X171Y72D01*
X210Y72D02*
X227Y72D01*
X253Y72D02*
X270Y72D01*
X310Y72D02*
X327Y72D01*
X353Y72D02*
X370Y72D01*
X410Y72D02*
X427Y72D01*
X453Y72D02*
X470Y72D01*
X510Y72D02*
X527Y72D01*
X553Y72D02*
X570Y72D01*
X610Y72D02*
X627Y72D01*
X653Y72D02*
X670Y72D01*
X710Y72D02*
X727Y72D01*
X753Y72D02*
X770Y72D01*
X810Y72D02*
X827Y72D01*
X853Y72D02*
X870Y72D01*
X910Y72D02*
X927Y72D01*
X953Y72D02*
X970Y72D01*
X1010Y72D02*
X1027Y72D01*
X1053Y72D02*
X1070Y72D01*
X1110Y72D02*
X1127Y72D01*
X1153Y72D02*
X1170Y72D01*
X1210Y72D02*
X1227Y72D01*
X1253Y72D02*
X1270Y72D01*
X110Y71D02*
X126Y71D01*
X154Y71D02*
X171Y71D01*
X210Y71D02*
X226Y71D01*
X254Y71D02*
X271Y71D01*
X310Y71D02*
X326Y71D01*
X354Y71D02*
X371Y71D01*
X410Y71D02*
X426Y71D01*
X454Y71D02*
X471Y71D01*
X510Y71D02*
X526Y71D01*
X554Y71D02*
X571Y71D01*
X610Y71D02*
X626Y71D01*
X654Y71D02*
X671Y71D01*
X710Y71D02*
X726Y71D01*
X754Y71D02*
X771Y71D01*
X810Y71D02*
X826Y71D01*
X854Y71D02*
X871Y71D01*
X910Y71D02*
X926Y71D01*
X954Y71D02*
X971Y71D01*
X1010Y71D02*
X1026Y71D01*
X1054Y71D02*
X1071Y71D01*
X1110Y71D02*
X1126Y71D01*
X1154Y71D02*
X1171Y71D01*
X1210Y71D02*
X1226Y71D01*
X1254Y71D02*
X1271Y71D01*
X109Y70D02*
X125Y70D01*
X155Y70D02*
X171Y70D01*
X209Y70D02*
X225Y70D01*
X255Y70D02*
X271Y70D01*
X309Y70D02*
X325Y70D01*
X355Y70D02*
X371Y70D01*
X409Y70D02*
X425Y70D01*
X455Y70D02*
X471Y70D01*
X509Y70D02*
X525Y70D01*
X555Y70D02*
X571Y70D01*
X609Y70D02*
X625Y70D01*
X655Y70D02*
X671Y70D01*
X709Y70D02*
X725Y70D01*
X755Y70D02*
X771Y70D01*
X809Y70D02*
X825Y70D01*
X855Y70D02*
X871Y70D01*
X909Y70D02*
X925Y70D01*
X955Y70D02*
X971Y70D01*
X1009Y70D02*
X1025Y70D01*
X1055Y70D02*
X1071Y70D01*
X1109Y70D02*
X1125Y70D01*
X1155Y70D02*
X1171Y70D01*
X1209Y70D02*
X1225Y70D01*
X1255Y70D02*
X1271Y70D01*
X109Y69D02*
X125Y69D01*
X156Y69D02*
X172Y69D01*
X209Y69D02*
X225Y69D01*
X256Y69D02*
X272Y69D01*
X309Y69D02*
X325Y69D01*
X356Y69D02*
X372Y69D01*
X409Y69D02*
X425Y69D01*
X456Y69D02*
X472Y69D01*
X509Y69D02*
X525Y69D01*
X556Y69D02*
X572Y69D01*
X609Y69D02*
X625Y69D01*
X656Y69D02*
X672Y69D01*
X709Y69D02*
X725Y69D01*
X756Y69D02*
X772Y69D01*
X809Y69D02*
X825Y69D01*
X856Y69D02*
X872Y69D01*
X909Y69D02*
X925Y69D01*
X956Y69D02*
X972Y69D01*
X1009Y69D02*
X1025Y69D01*
X1056Y69D02*
X1072Y69D01*
X1109Y69D02*
X1125Y69D01*
X1156Y69D02*
X1172Y69D01*
X1209Y69D02*
X1225Y69D01*
X1256Y69D02*
X1272Y69D01*
X109Y68D02*
X124Y68D01*
X156Y68D02*
X172Y68D01*
X209Y68D02*
X224Y68D01*
X256Y68D02*
X272Y68D01*
X309Y68D02*
X324Y68D01*
X356Y68D02*
X372Y68D01*
X408Y68D02*
X424Y68D01*
X456Y68D02*
X472Y68D01*
X508Y68D02*
X524Y68D01*
X556Y68D02*
X572Y68D01*
X608Y68D02*
X624Y68D01*
X656Y68D02*
X672Y68D01*
X708Y68D02*
X724Y68D01*
X756Y68D02*
X772Y68D01*
X808Y68D02*
X824Y68D01*
X856Y68D02*
X872Y68D01*
X908Y68D02*
X924Y68D01*
X956Y68D02*
X972Y68D01*
X1008Y68D02*
X1024Y68D01*
X1056Y68D02*
X1072Y68D01*
X1108Y68D02*
X1124Y68D01*
X1156Y68D02*
X1172Y68D01*
X1208Y68D02*
X1224Y68D01*
X1256Y68D02*
X1272Y68D01*
X108Y67D02*
X124Y67D01*
X157Y67D02*
X173Y67D01*
X208Y67D02*
X224Y67D01*
X257Y67D02*
X273Y67D01*
X308Y67D02*
X324Y67D01*
X357Y67D02*
X373Y67D01*
X408Y67D02*
X424Y67D01*
X457Y67D02*
X473Y67D01*
X508Y67D02*
X524Y67D01*
X557Y67D02*
X572Y67D01*
X608Y67D02*
X624Y67D01*
X657Y67D02*
X672Y67D01*
X708Y67D02*
X724Y67D01*
X757Y67D02*
X772Y67D01*
X808Y67D02*
X824Y67D01*
X857Y67D02*
X872Y67D01*
X908Y67D02*
X924Y67D01*
X957Y67D02*
X972Y67D01*
X1008Y67D02*
X1024Y67D01*
X1057Y67D02*
X1072Y67D01*
X1108Y67D02*
X1124Y67D01*
X1157Y67D02*
X1172Y67D01*
X1208Y67D02*
X1224Y67D01*
X1257Y67D02*
X1272Y67D01*
X108Y66D02*
X123Y66D01*
X157Y66D02*
X173Y66D01*
X208Y66D02*
X223Y66D01*
X257Y66D02*
X273Y66D01*
X308Y66D02*
X323Y66D01*
X357Y66D02*
X373Y66D01*
X408Y66D02*
X423Y66D01*
X457Y66D02*
X473Y66D01*
X508Y66D02*
X523Y66D01*
X557Y66D02*
X573Y66D01*
X608Y66D02*
X623Y66D01*
X657Y66D02*
X673Y66D01*
X708Y66D02*
X723Y66D01*
X757Y66D02*
X773Y66D01*
X808Y66D02*
X823Y66D01*
X857Y66D02*
X873Y66D01*
X908Y66D02*
X923Y66D01*
X957Y66D02*
X973Y66D01*
X1008Y66D02*
X1023Y66D01*
X1057Y66D02*
X1073Y66D01*
X1108Y66D02*
X1123Y66D01*
X1157Y66D02*
X1173Y66D01*
X1208Y66D02*
X1223Y66D01*
X1257Y66D02*
X1273Y66D01*
X108Y65D02*
X123Y65D01*
X158Y65D02*
X173Y65D01*
X208Y65D02*
X223Y65D01*
X258Y65D02*
X273Y65D01*
X308Y65D02*
X323Y65D01*
X358Y65D02*
X373Y65D01*
X408Y65D02*
X423Y65D01*
X458Y65D02*
X473Y65D01*
X508Y65D02*
X523Y65D01*
X558Y65D02*
X573Y65D01*
X608Y65D02*
X623Y65D01*
X658Y65D02*
X673Y65D01*
X708Y65D02*
X723Y65D01*
X758Y65D02*
X773Y65D01*
X808Y65D02*
X823Y65D01*
X858Y65D02*
X873Y65D01*
X908Y65D02*
X923Y65D01*
X958Y65D02*
X973Y65D01*
X1008Y65D02*
X1023Y65D01*
X1058Y65D02*
X1073Y65D01*
X1108Y65D02*
X1123Y65D01*
X1158Y65D02*
X1173Y65D01*
X1208Y65D02*
X1223Y65D01*
X1258Y65D02*
X1273Y65D01*
X107Y64D02*
X123Y64D01*
X158Y64D02*
X173Y64D01*
X207Y64D02*
X223Y64D01*
X258Y64D02*
X273Y64D01*
X307Y64D02*
X323Y64D01*
X358Y64D02*
X373Y64D01*
X407Y64D02*
X423Y64D01*
X458Y64D02*
X473Y64D01*
X507Y64D02*
X523Y64D01*
X558Y64D02*
X573Y64D01*
X607Y64D02*
X623Y64D01*
X658Y64D02*
X673Y64D01*
X707Y64D02*
X723Y64D01*
X758Y64D02*
X773Y64D01*
X807Y64D02*
X823Y64D01*
X858Y64D02*
X873Y64D01*
X907Y64D02*
X923Y64D01*
X958Y64D02*
X973Y64D01*
X1007Y64D02*
X1023Y64D01*
X1058Y64D02*
X1073Y64D01*
X1107Y64D02*
X1123Y64D01*
X1158Y64D02*
X1173Y64D01*
X1207Y64D02*
X1223Y64D01*
X1258Y64D02*
X1273Y64D01*
X107Y63D02*
X122Y63D01*
X158Y63D02*
X173Y63D01*
X207Y63D02*
X222Y63D01*
X258Y63D02*
X273Y63D01*
X307Y63D02*
X322Y63D01*
X358Y63D02*
X373Y63D01*
X407Y63D02*
X422Y63D01*
X458Y63D02*
X473Y63D01*
X507Y63D02*
X522Y63D01*
X558Y63D02*
X573Y63D01*
X607Y63D02*
X622Y63D01*
X658Y63D02*
X673Y63D01*
X707Y63D02*
X722Y63D01*
X758Y63D02*
X773Y63D01*
X807Y63D02*
X822Y63D01*
X858Y63D02*
X873Y63D01*
X907Y63D02*
X922Y63D01*
X958Y63D02*
X973Y63D01*
X1007Y63D02*
X1022Y63D01*
X1058Y63D02*
X1073Y63D01*
X1107Y63D02*
X1122Y63D01*
X1158Y63D02*
X1173Y63D01*
X1207Y63D02*
X1222Y63D01*
X1258Y63D02*
X1273Y63D01*
X107Y62D02*
X122Y62D01*
X159Y62D02*
X174Y62D01*
X207Y62D02*
X222Y62D01*
X259Y62D02*
X274Y62D01*
X307Y62D02*
X322Y62D01*
X359Y62D02*
X374Y62D01*
X407Y62D02*
X422Y62D01*
X459Y62D02*
X474Y62D01*
X507Y62D02*
X522Y62D01*
X559Y62D02*
X574Y62D01*
X607Y62D02*
X622Y62D01*
X659Y62D02*
X674Y62D01*
X707Y62D02*
X722Y62D01*
X759Y62D02*
X774Y62D01*
X807Y62D02*
X822Y62D01*
X859Y62D02*
X874Y62D01*
X907Y62D02*
X922Y62D01*
X959Y62D02*
X974Y62D01*
X1007Y62D02*
X1022Y62D01*
X1059Y62D02*
X1074Y62D01*
X1107Y62D02*
X1122Y62D01*
X1158Y62D02*
X1174Y62D01*
X1207Y62D02*
X1222Y62D01*
X1258Y62D02*
X1274Y62D01*
X107Y61D02*
X122Y61D01*
X159Y61D02*
X174Y61D01*
X207Y61D02*
X222Y61D01*
X259Y61D02*
X274Y61D01*
X307Y61D02*
X322Y61D01*
X359Y61D02*
X374Y61D01*
X407Y61D02*
X422Y61D01*
X459Y61D02*
X474Y61D01*
X507Y61D02*
X522Y61D01*
X559Y61D02*
X574Y61D01*
X607Y61D02*
X622Y61D01*
X659Y61D02*
X674Y61D01*
X707Y61D02*
X722Y61D01*
X759Y61D02*
X774Y61D01*
X807Y61D02*
X822Y61D01*
X859Y61D02*
X874Y61D01*
X907Y61D02*
X922Y61D01*
X959Y61D02*
X974Y61D01*
X1007Y61D02*
X1022Y61D01*
X1059Y61D02*
X1074Y61D01*
X1107Y61D02*
X1122Y61D01*
X1159Y61D02*
X1174Y61D01*
X1207Y61D02*
X1222Y61D01*
X1259Y61D02*
X1274Y61D01*
X107Y60D02*
X122Y60D01*
X159Y60D02*
X174Y60D01*
X207Y60D02*
X222Y60D01*
X259Y60D02*
X274Y60D01*
X307Y60D02*
X322Y60D01*
X359Y60D02*
X374Y60D01*
X407Y60D02*
X422Y60D01*
X459Y60D02*
X474Y60D01*
X507Y60D02*
X522Y60D01*
X559Y60D02*
X574Y60D01*
X607Y60D02*
X622Y60D01*
X659Y60D02*
X674Y60D01*
X707Y60D02*
X722Y60D01*
X759Y60D02*
X774Y60D01*
X807Y60D02*
X822Y60D01*
X859Y60D02*
X874Y60D01*
X907Y60D02*
X922Y60D01*
X959Y60D02*
X974Y60D01*
X1007Y60D02*
X1022Y60D01*
X1059Y60D02*
X1074Y60D01*
X1107Y60D02*
X1122Y60D01*
X1159Y60D02*
X1174Y60D01*
X1207Y60D02*
X1222Y60D01*
X1259Y60D02*
X1274Y60D01*
X107Y59D02*
X122Y59D01*
X159Y59D02*
X174Y59D01*
X207Y59D02*
X222Y59D01*
X259Y59D02*
X274Y59D01*
X307Y59D02*
X322Y59D01*
X359Y59D02*
X374Y59D01*
X407Y59D02*
X422Y59D01*
X459Y59D02*
X474Y59D01*
X507Y59D02*
X522Y59D01*
X559Y59D02*
X574Y59D01*
X607Y59D02*
X622Y59D01*
X659Y59D02*
X674Y59D01*
X707Y59D02*
X722Y59D01*
X759Y59D02*
X774Y59D01*
X807Y59D02*
X822Y59D01*
X859Y59D02*
X874Y59D01*
X907Y59D02*
X922Y59D01*
X959Y59D02*
X974Y59D01*
X1007Y59D02*
X1022Y59D01*
X1059Y59D02*
X1074Y59D01*
X1107Y59D02*
X1122Y59D01*
X1159Y59D02*
X1174Y59D01*
X1207Y59D02*
X1222Y59D01*
X1259Y59D02*
X1274Y59D01*
X107Y58D02*
X122Y58D01*
X159Y58D02*
X174Y58D01*
X207Y58D02*
X222Y58D01*
X259Y58D02*
X274Y58D01*
X307Y58D02*
X322Y58D01*
X359Y58D02*
X374Y58D01*
X407Y58D02*
X422Y58D01*
X459Y58D02*
X474Y58D01*
X507Y58D02*
X522Y58D01*
X559Y58D02*
X574Y58D01*
X607Y58D02*
X622Y58D01*
X659Y58D02*
X674Y58D01*
X707Y58D02*
X722Y58D01*
X759Y58D02*
X774Y58D01*
X807Y58D02*
X822Y58D01*
X859Y58D02*
X874Y58D01*
X907Y58D02*
X922Y58D01*
X959Y58D02*
X974Y58D01*
X1007Y58D02*
X1022Y58D01*
X1059Y58D02*
X1074Y58D01*
X1107Y58D02*
X1122Y58D01*
X1159Y58D02*
X1174Y58D01*
X1207Y58D02*
X1222Y58D01*
X1259Y58D02*
X1274Y58D01*
X107Y57D02*
X122Y57D01*
X159Y57D02*
X174Y57D01*
X207Y57D02*
X222Y57D01*
X259Y57D02*
X274Y57D01*
X307Y57D02*
X322Y57D01*
X359Y57D02*
X374Y57D01*
X407Y57D02*
X422Y57D01*
X459Y57D02*
X474Y57D01*
X507Y57D02*
X522Y57D01*
X559Y57D02*
X574Y57D01*
X607Y57D02*
X622Y57D01*
X659Y57D02*
X674Y57D01*
X707Y57D02*
X722Y57D01*
X759Y57D02*
X774Y57D01*
X807Y57D02*
X822Y57D01*
X859Y57D02*
X874Y57D01*
X907Y57D02*
X922Y57D01*
X959Y57D02*
X974Y57D01*
X1007Y57D02*
X1022Y57D01*
X1059Y57D02*
X1074Y57D01*
X1107Y57D02*
X1122Y57D01*
X1159Y57D02*
X1174Y57D01*
X1207Y57D02*
X1222Y57D01*
X1259Y57D02*
X1274Y57D01*
X107Y56D02*
X122Y56D01*
X159Y56D02*
X174Y56D01*
X207Y56D02*
X222Y56D01*
X259Y56D02*
X274Y56D01*
X307Y56D02*
X322Y56D01*
X359Y56D02*
X374Y56D01*
X407Y56D02*
X422Y56D01*
X459Y56D02*
X474Y56D01*
X507Y56D02*
X522Y56D01*
X559Y56D02*
X574Y56D01*
X607Y56D02*
X622Y56D01*
X659Y56D02*
X674Y56D01*
X707Y56D02*
X722Y56D01*
X759Y56D02*
X774Y56D01*
X807Y56D02*
X822Y56D01*
X859Y56D02*
X874Y56D01*
X907Y56D02*
X922Y56D01*
X959Y56D02*
X974Y56D01*
X1007Y56D02*
X1022Y56D01*
X1059Y56D02*
X1074Y56D01*
X1107Y56D02*
X1122Y56D01*
X1159Y56D02*
X1174Y56D01*
X1207Y56D02*
X1222Y56D01*
X1259Y56D02*
X1274Y56D01*
X107Y55D02*
X122Y55D01*
X159Y55D02*
X174Y55D01*
X207Y55D02*
X222Y55D01*
X259Y55D02*
X274Y55D01*
X307Y55D02*
X322Y55D01*
X359Y55D02*
X374Y55D01*
X407Y55D02*
X422Y55D01*
X459Y55D02*
X474Y55D01*
X507Y55D02*
X522Y55D01*
X559Y55D02*
X574Y55D01*
X607Y55D02*
X622Y55D01*
X659Y55D02*
X674Y55D01*
X707Y55D02*
X722Y55D01*
X759Y55D02*
X774Y55D01*
X807Y55D02*
X822Y55D01*
X859Y55D02*
X874Y55D01*
X907Y55D02*
X922Y55D01*
X959Y55D02*
X974Y55D01*
X1007Y55D02*
X1022Y55D01*
X1059Y55D02*
X1074Y55D01*
X1107Y55D02*
X1122Y55D01*
X1159Y55D02*
X1174Y55D01*
X1207Y55D02*
X1222Y55D01*
X1259Y55D02*
X1274Y55D01*
X107Y54D02*
X122Y54D01*
X158Y54D02*
X174Y54D01*
X207Y54D02*
X222Y54D01*
X258Y54D02*
X274Y54D01*
X307Y54D02*
X322Y54D01*
X358Y54D02*
X374Y54D01*
X407Y54D02*
X422Y54D01*
X458Y54D02*
X474Y54D01*
X507Y54D02*
X522Y54D01*
X558Y54D02*
X574Y54D01*
X607Y54D02*
X622Y54D01*
X658Y54D02*
X674Y54D01*
X707Y54D02*
X722Y54D01*
X758Y54D02*
X774Y54D01*
X807Y54D02*
X822Y54D01*
X858Y54D02*
X874Y54D01*
X907Y54D02*
X922Y54D01*
X958Y54D02*
X973Y54D01*
X1007Y54D02*
X1022Y54D01*
X1058Y54D02*
X1073Y54D01*
X1107Y54D02*
X1122Y54D01*
X1158Y54D02*
X1173Y54D01*
X1207Y54D02*
X1222Y54D01*
X1258Y54D02*
X1273Y54D01*
X107Y53D02*
X123Y53D01*
X158Y53D02*
X173Y53D01*
X207Y53D02*
X223Y53D01*
X258Y53D02*
X273Y53D01*
X307Y53D02*
X322Y53D01*
X358Y53D02*
X373Y53D01*
X407Y53D02*
X422Y53D01*
X458Y53D02*
X473Y53D01*
X507Y53D02*
X522Y53D01*
X558Y53D02*
X573Y53D01*
X607Y53D02*
X622Y53D01*
X658Y53D02*
X673Y53D01*
X707Y53D02*
X722Y53D01*
X758Y53D02*
X773Y53D01*
X807Y53D02*
X822Y53D01*
X858Y53D02*
X873Y53D01*
X907Y53D02*
X922Y53D01*
X958Y53D02*
X973Y53D01*
X1007Y53D02*
X1022Y53D01*
X1058Y53D02*
X1073Y53D01*
X1107Y53D02*
X1122Y53D01*
X1158Y53D02*
X1173Y53D01*
X1207Y53D02*
X1222Y53D01*
X1258Y53D02*
X1273Y53D01*
X108Y52D02*
X123Y52D01*
X158Y52D02*
X173Y52D01*
X208Y52D02*
X223Y52D01*
X258Y52D02*
X273Y52D01*
X308Y52D02*
X323Y52D01*
X358Y52D02*
X373Y52D01*
X408Y52D02*
X423Y52D01*
X458Y52D02*
X473Y52D01*
X508Y52D02*
X523Y52D01*
X558Y52D02*
X573Y52D01*
X608Y52D02*
X623Y52D01*
X658Y52D02*
X673Y52D01*
X708Y52D02*
X723Y52D01*
X758Y52D02*
X773Y52D01*
X808Y52D02*
X823Y52D01*
X858Y52D02*
X873Y52D01*
X907Y52D02*
X923Y52D01*
X958Y52D02*
X973Y52D01*
X1007Y52D02*
X1023Y52D01*
X1058Y52D02*
X1073Y52D01*
X1107Y52D02*
X1123Y52D01*
X1158Y52D02*
X1173Y52D01*
X1207Y52D02*
X1223Y52D01*
X1258Y52D02*
X1273Y52D01*
X108Y51D02*
X123Y51D01*
X158Y51D02*
X173Y51D01*
X208Y51D02*
X223Y51D01*
X258Y51D02*
X273Y51D01*
X308Y51D02*
X323Y51D01*
X358Y51D02*
X373Y51D01*
X408Y51D02*
X423Y51D01*
X458Y51D02*
X473Y51D01*
X508Y51D02*
X523Y51D01*
X558Y51D02*
X573Y51D01*
X608Y51D02*
X623Y51D01*
X658Y51D02*
X673Y51D01*
X708Y51D02*
X723Y51D01*
X758Y51D02*
X773Y51D01*
X808Y51D02*
X823Y51D01*
X858Y51D02*
X873Y51D01*
X908Y51D02*
X923Y51D01*
X958Y51D02*
X973Y51D01*
X1008Y51D02*
X1023Y51D01*
X1058Y51D02*
X1073Y51D01*
X1108Y51D02*
X1123Y51D01*
X1158Y51D02*
X1173Y51D01*
X1208Y51D02*
X1223Y51D01*
X1258Y51D02*
X1273Y51D01*
X108Y50D02*
X123Y50D01*
X157Y50D02*
X173Y50D01*
X208Y50D02*
X223Y50D01*
X257Y50D02*
X273Y50D01*
X308Y50D02*
X323Y50D01*
X357Y50D02*
X373Y50D01*
X408Y50D02*
X423Y50D01*
X457Y50D02*
X473Y50D01*
X508Y50D02*
X523Y50D01*
X557Y50D02*
X573Y50D01*
X608Y50D02*
X623Y50D01*
X657Y50D02*
X673Y50D01*
X708Y50D02*
X723Y50D01*
X757Y50D02*
X773Y50D01*
X808Y50D02*
X823Y50D01*
X857Y50D02*
X873Y50D01*
X908Y50D02*
X923Y50D01*
X957Y50D02*
X973Y50D01*
X1008Y50D02*
X1023Y50D01*
X1057Y50D02*
X1073Y50D01*
X1108Y50D02*
X1123Y50D01*
X1157Y50D02*
X1173Y50D01*
X1208Y50D02*
X1223Y50D01*
X1257Y50D02*
X1273Y50D01*
X108Y49D02*
X124Y49D01*
X157Y49D02*
X172Y49D01*
X208Y49D02*
X224Y49D01*
X257Y49D02*
X272Y49D01*
X308Y49D02*
X324Y49D01*
X357Y49D02*
X372Y49D01*
X408Y49D02*
X424Y49D01*
X457Y49D02*
X472Y49D01*
X508Y49D02*
X524Y49D01*
X557Y49D02*
X572Y49D01*
X608Y49D02*
X624Y49D01*
X657Y49D02*
X672Y49D01*
X708Y49D02*
X724Y49D01*
X757Y49D02*
X772Y49D01*
X808Y49D02*
X824Y49D01*
X857Y49D02*
X872Y49D01*
X908Y49D02*
X924Y49D01*
X957Y49D02*
X972Y49D01*
X1008Y49D02*
X1024Y49D01*
X1057Y49D02*
X1072Y49D01*
X1108Y49D02*
X1124Y49D01*
X1157Y49D02*
X1172Y49D01*
X1208Y49D02*
X1224Y49D01*
X1257Y49D02*
X1272Y49D01*
X109Y48D02*
X124Y48D01*
X156Y48D02*
X172Y48D01*
X209Y48D02*
X224Y48D01*
X256Y48D02*
X272Y48D01*
X309Y48D02*
X324Y48D01*
X356Y48D02*
X372Y48D01*
X409Y48D02*
X424Y48D01*
X456Y48D02*
X472Y48D01*
X509Y48D02*
X524Y48D01*
X556Y48D02*
X572Y48D01*
X609Y48D02*
X624Y48D01*
X656Y48D02*
X672Y48D01*
X709Y48D02*
X724Y48D01*
X756Y48D02*
X772Y48D01*
X809Y48D02*
X824Y48D01*
X856Y48D02*
X872Y48D01*
X909Y48D02*
X924Y48D01*
X956Y48D02*
X972Y48D01*
X1009Y48D02*
X1024Y48D01*
X1056Y48D02*
X1072Y48D01*
X1109Y48D02*
X1124Y48D01*
X1156Y48D02*
X1172Y48D01*
X1209Y48D02*
X1224Y48D01*
X1256Y48D02*
X1272Y48D01*
X109Y47D02*
X125Y47D01*
X156Y47D02*
X172Y47D01*
X209Y47D02*
X225Y47D01*
X256Y47D02*
X272Y47D01*
X309Y47D02*
X325Y47D01*
X356Y47D02*
X372Y47D01*
X409Y47D02*
X425Y47D01*
X456Y47D02*
X472Y47D01*
X509Y47D02*
X525Y47D01*
X556Y47D02*
X572Y47D01*
X609Y47D02*
X625Y47D01*
X656Y47D02*
X672Y47D01*
X709Y47D02*
X725Y47D01*
X756Y47D02*
X772Y47D01*
X809Y47D02*
X825Y47D01*
X856Y47D02*
X872Y47D01*
X909Y47D02*
X925Y47D01*
X955Y47D02*
X972Y47D01*
X1009Y47D02*
X1025Y47D01*
X1055Y47D02*
X1072Y47D01*
X1109Y47D02*
X1125Y47D01*
X1155Y47D02*
X1172Y47D01*
X1209Y47D02*
X1225Y47D01*
X1255Y47D02*
X1272Y47D01*
X109Y46D02*
X126Y46D01*
X155Y46D02*
X171Y46D01*
X209Y46D02*
X226Y46D01*
X255Y46D02*
X271Y46D01*
X309Y46D02*
X326Y46D01*
X355Y46D02*
X371Y46D01*
X409Y46D02*
X426Y46D01*
X455Y46D02*
X471Y46D01*
X509Y46D02*
X526Y46D01*
X555Y46D02*
X571Y46D01*
X609Y46D02*
X626Y46D01*
X655Y46D02*
X671Y46D01*
X709Y46D02*
X726Y46D01*
X755Y46D02*
X771Y46D01*
X809Y46D02*
X826Y46D01*
X855Y46D02*
X871Y46D01*
X909Y46D02*
X926Y46D01*
X955Y46D02*
X971Y46D01*
X1009Y46D02*
X1026Y46D01*
X1055Y46D02*
X1071Y46D01*
X1109Y46D02*
X1126Y46D01*
X1155Y46D02*
X1171Y46D01*
X1209Y46D02*
X1226Y46D01*
X1255Y46D02*
X1271Y46D01*
X110Y45D02*
X127Y45D01*
X154Y45D02*
X171Y45D01*
X210Y45D02*
X227Y45D01*
X254Y45D02*
X271Y45D01*
X310Y45D02*
X327Y45D01*
X354Y45D02*
X371Y45D01*
X410Y45D02*
X427Y45D01*
X454Y45D02*
X471Y45D01*
X510Y45D02*
X527Y45D01*
X554Y45D02*
X571Y45D01*
X610Y45D02*
X627Y45D01*
X654Y45D02*
X671Y45D01*
X710Y45D02*
X727Y45D01*
X754Y45D02*
X771Y45D01*
X810Y45D02*
X827Y45D01*
X854Y45D02*
X871Y45D01*
X910Y45D02*
X927Y45D01*
X954Y45D02*
X971Y45D01*
X1010Y45D02*
X1027Y45D01*
X1054Y45D02*
X1071Y45D01*
X1110Y45D02*
X1127Y45D01*
X1154Y45D02*
X1171Y45D01*
X1210Y45D02*
X1226Y45D01*
X1254Y45D02*
X1271Y45D01*
X110Y44D02*
X128Y44D01*
X153Y44D02*
X170Y44D01*
X210Y44D02*
X228Y44D01*
X253Y44D02*
X270Y44D01*
X310Y44D02*
X328Y44D01*
X353Y44D02*
X370Y44D01*
X410Y44D02*
X428Y44D01*
X453Y44D02*
X470Y44D01*
X510Y44D02*
X528Y44D01*
X553Y44D02*
X570Y44D01*
X610Y44D02*
X628Y44D01*
X653Y44D02*
X670Y44D01*
X710Y44D02*
X728Y44D01*
X753Y44D02*
X770Y44D01*
X810Y44D02*
X828Y44D01*
X853Y44D02*
X870Y44D01*
X910Y44D02*
X928Y44D01*
X953Y44D02*
X970Y44D01*
X1010Y44D02*
X1028Y44D01*
X1053Y44D02*
X1070Y44D01*
X1110Y44D02*
X1128Y44D01*
X1153Y44D02*
X1170Y44D01*
X1210Y44D02*
X1228Y44D01*
X1253Y44D02*
X1270Y44D01*
X111Y43D02*
X129Y43D01*
X151Y43D02*
X170Y43D01*
X211Y43D02*
X229Y43D01*
X251Y43D02*
X270Y43D01*
X311Y43D02*
X329Y43D01*
X351Y43D02*
X370Y43D01*
X411Y43D02*
X429Y43D01*
X451Y43D02*
X470Y43D01*
X511Y43D02*
X529Y43D01*
X551Y43D02*
X570Y43D01*
X611Y43D02*
X629Y43D01*
X651Y43D02*
X670Y43D01*
X711Y43D02*
X729Y43D01*
X751Y43D02*
X770Y43D01*
X811Y43D02*
X829Y43D01*
X851Y43D02*
X870Y43D01*
X911Y43D02*
X929Y43D01*
X951Y43D02*
X970Y43D01*
X1011Y43D02*
X1029Y43D01*
X1051Y43D02*
X1070Y43D01*
X1111Y43D02*
X1129Y43D01*
X1151Y43D02*
X1170Y43D01*
X1211Y43D02*
X1229Y43D01*
X1251Y43D02*
X1270Y43D01*
X111Y42D02*
X131Y42D01*
X149Y42D02*
X169Y42D01*
X211Y42D02*
X231Y42D01*
X249Y42D02*
X269Y42D01*
X311Y42D02*
X331Y42D01*
X349Y42D02*
X369Y42D01*
X411Y42D02*
X431Y42D01*
X449Y42D02*
X469Y42D01*
X511Y42D02*
X531Y42D01*
X549Y42D02*
X569Y42D01*
X611Y42D02*
X631Y42D01*
X649Y42D02*
X669Y42D01*
X711Y42D02*
X731Y42D01*
X749Y42D02*
X769Y42D01*
X811Y42D02*
X831Y42D01*
X849Y42D02*
X869Y42D01*
X911Y42D02*
X931Y42D01*
X949Y42D02*
X969Y42D01*
X1011Y42D02*
X1031Y42D01*
X1049Y42D02*
X1069Y42D01*
X1111Y42D02*
X1131Y42D01*
X1149Y42D02*
X1169Y42D01*
X1211Y42D02*
X1231Y42D01*
X1249Y42D02*
X1269Y42D01*
X112Y41D02*
X135Y41D01*
X146Y41D02*
X169Y41D01*
X212Y41D02*
X235Y41D01*
X246Y41D02*
X269Y41D01*
X312Y41D02*
X334Y41D01*
X346Y41D02*
X369Y41D01*
X412Y41D02*
X434Y41D01*
X446Y41D02*
X469Y41D01*
X512Y41D02*
X534Y41D01*
X546Y41D02*
X569Y41D01*
X612Y41D02*
X634Y41D01*
X646Y41D02*
X669Y41D01*
X712Y41D02*
X734Y41D01*
X746Y41D02*
X769Y41D01*
X812Y41D02*
X834Y41D01*
X846Y41D02*
X869Y41D01*
X912Y41D02*
X934Y41D01*
X946Y41D02*
X969Y41D01*
X1012Y41D02*
X1034Y41D01*
X1046Y41D02*
X1069Y41D01*
X1112Y41D02*
X1134Y41D01*
X1146Y41D02*
X1169Y41D01*
X1212Y41D02*
X1234Y41D01*
X1246Y41D02*
X1269Y41D01*
X113Y40D02*
X168Y40D01*
X213Y40D02*
X268Y40D01*
X313Y40D02*
X368Y40D01*
X413Y40D02*
X468Y40D01*
X513Y40D02*
X568Y40D01*
X613Y40D02*
X668Y40D01*
X713Y40D02*
X768Y40D01*
X813Y40D02*
X868Y40D01*
X913Y40D02*
X968Y40D01*
X1013Y40D02*
X1068Y40D01*
X1112Y40D02*
X1168Y40D01*
X1212Y40D02*
X1268Y40D01*
X113Y39D02*
X167Y39D01*
X213Y39D02*
X267Y39D01*
X313Y39D02*
X367Y39D01*
X413Y39D02*
X467Y39D01*
X513Y39D02*
X567Y39D01*
X613Y39D02*
X667Y39D01*
X713Y39D02*
X767Y39D01*
X813Y39D02*
X867Y39D01*
X913Y39D02*
X967Y39D01*
X1013Y39D02*
X1067Y39D01*
X1113Y39D02*
X1167Y39D01*
X1213Y39D02*
X1267Y39D01*
X114Y38D02*
X166Y38D01*
X214Y38D02*
X266Y38D01*
X314Y38D02*
X366Y38D01*
X414Y38D02*
X466Y38D01*
X514Y38D02*
X566Y38D01*
X614Y38D02*
X666Y38D01*
X714Y38D02*
X766Y38D01*
X814Y38D02*
X866Y38D01*
X914Y38D02*
X966Y38D01*
X1014Y38D02*
X1066Y38D01*
X1114Y38D02*
X1166Y38D01*
X1214Y38D02*
X1266Y38D01*
X115Y37D02*
X166Y37D01*
X215Y37D02*
X266Y37D01*
X315Y37D02*
X366Y37D01*
X415Y37D02*
X466Y37D01*
X515Y37D02*
X566Y37D01*
X615Y37D02*
X666Y37D01*
X715Y37D02*
X766Y37D01*
X815Y37D02*
X866Y37D01*
X915Y37D02*
X966Y37D01*
X1015Y37D02*
X1066Y37D01*
X1115Y37D02*
X1166Y37D01*
X1215Y37D02*
X1266Y37D01*
X116Y36D02*
X165Y36D01*
X216Y36D02*
X265Y36D01*
X316Y36D02*
X365Y36D01*
X416Y36D02*
X465Y36D01*
X516Y36D02*
X565Y36D01*
X616Y36D02*
X665Y36D01*
X716Y36D02*
X765Y36D01*
X816Y36D02*
X865Y36D01*
X916Y36D02*
X965Y36D01*
X1016Y36D02*
X1065Y36D01*
X1116Y36D02*
X1165Y36D01*
X1216Y36D02*
X1265Y36D01*
X117Y35D02*
X164Y35D01*
X217Y35D02*
X264Y35D01*
X317Y35D02*
X364Y35D01*
X417Y35D02*
X464Y35D01*
X517Y35D02*
X564Y35D01*
X617Y35D02*
X664Y35D01*
X717Y35D02*
X764Y35D01*
X817Y35D02*
X864Y35D01*
X917Y35D02*
X964Y35D01*
X1017Y35D02*
X1064Y35D01*
X1117Y35D02*
X1164Y35D01*
X1217Y35D02*
X1264Y35D01*
X118Y34D02*
X163Y34D01*
X218Y34D02*
X263Y34D01*
X318Y34D02*
X363Y34D01*
X418Y34D02*
X463Y34D01*
X518Y34D02*
X563Y34D01*
X618Y34D02*
X663Y34D01*
X718Y34D02*
X763Y34D01*
X818Y34D02*
X863Y34D01*
X918Y34D02*
X963Y34D01*
X1018Y34D02*
X1063Y34D01*
X1118Y34D02*
X1163Y34D01*
X1218Y34D02*
X1263Y34D01*
X119Y33D02*
X162Y33D01*
X219Y33D02*
X262Y33D01*
X319Y33D02*
X362Y33D01*
X419Y33D02*
X462Y33D01*
X519Y33D02*
X562Y33D01*
X619Y33D02*
X662Y33D01*
X719Y33D02*
X762Y33D01*
X819Y33D02*
X862Y33D01*
X919Y33D02*
X962Y33D01*
X1019Y33D02*
X1062Y33D01*
X1119Y33D02*
X1162Y33D01*
X1219Y33D02*
X1262Y33D01*
X120Y32D02*
X161Y32D01*
X220Y32D02*
X261Y32D01*
X320Y32D02*
X361Y32D01*
X420Y32D02*
X460Y32D01*
X520Y32D02*
X560Y32D01*
X620Y32D02*
X660Y32D01*
X720Y32D02*
X760Y32D01*
X820Y32D02*
X860Y32D01*
X920Y32D02*
X960Y32D01*
X1020Y32D02*
X1060Y32D01*
X1120Y32D02*
X1160Y32D01*
X1220Y32D02*
X1260Y32D01*
X121Y31D02*
X159Y31D01*
X221Y31D02*
X259Y31D01*
X321Y31D02*
X359Y31D01*
X421Y31D02*
X459Y31D01*
X521Y31D02*
X559Y31D01*
X621Y31D02*
X659Y31D01*
X721Y31D02*
X759Y31D01*
X821Y31D02*
X859Y31D01*
X921Y31D02*
X959Y31D01*
X1021Y31D02*
X1059Y31D01*
X1121Y31D02*
X1159Y31D01*
X1221Y31D02*
X1259Y31D01*
X123Y30D02*
X158Y30D01*
X223Y30D02*
X258Y30D01*
X323Y30D02*
X358Y30D01*
X423Y30D02*
X458Y30D01*
X523Y30D02*
X558Y30D01*
X623Y30D02*
X658Y30D01*
X723Y30D02*
X758Y30D01*
X823Y30D02*
X858Y30D01*
X923Y30D02*
X958Y30D01*
X1023Y30D02*
X1058Y30D01*
X1123Y30D02*
X1158Y30D01*
X1223Y30D02*
X1258Y30D01*
X124Y29D02*
X156Y29D01*
X224Y29D02*
X256Y29D01*
X324Y29D02*
X356Y29D01*
X424Y29D02*
X456Y29D01*
X524Y29D02*
X556Y29D01*
X624Y29D02*
X656Y29D01*
X724Y29D02*
X756Y29D01*
X824Y29D02*
X856Y29D01*
X924Y29D02*
X956Y29D01*
X1024Y29D02*
X1056Y29D01*
X1124Y29D02*
X1156Y29D01*
X1224Y29D02*
X1256Y29D01*
X126Y28D02*
X154Y28D01*
X226Y28D02*
X254Y28D01*
X326Y28D02*
X354Y28D01*
X426Y28D02*
X454Y28D01*
X526Y28D02*
X554Y28D01*
X626Y28D02*
X654Y28D01*
X726Y28D02*
X754Y28D01*
X826Y28D02*
X854Y28D01*
X926Y28D02*
X954Y28D01*
X1026Y28D02*
X1054Y28D01*
X1126Y28D02*
X1154Y28D01*
X1226Y28D02*
X1254Y28D01*
X128Y27D02*
X152Y27D01*
X228Y27D02*
X252Y27D01*
X328Y27D02*
X352Y27D01*
X428Y27D02*
X452Y27D01*
X528Y27D02*
X552Y27D01*
X628Y27D02*
X652Y27D01*
X728Y27D02*
X752Y27D01*
X828Y27D02*
X852Y27D01*
X928Y27D02*
X952Y27D01*
X1028Y27D02*
X1052Y27D01*
X1128Y27D02*
X1152Y27D01*
X1228Y27D02*
X1252Y27D01*
X131Y26D02*
X150Y26D01*
X231Y26D02*
X249Y26D01*
X331Y26D02*
X349Y26D01*
X431Y26D02*
X449Y26D01*
X531Y26D02*
X549Y26D01*
X631Y26D02*
X649Y26D01*
X731Y26D02*
X749Y26D01*
X831Y26D02*
X849Y26D01*
X931Y26D02*
X949Y26D01*
X1031Y26D02*
X1049Y26D01*
X1131Y26D02*
X1149Y26D01*
X1231Y26D02*
X1249Y26D01*
X135Y25D02*
X146Y25D01*
X235Y25D02*
X246Y25D01*
X335Y25D02*
X346Y25D01*
X435Y25D02*
X446Y25D01*
X535Y25D02*
X546Y25D01*
X635Y25D02*
X646Y25D01*
X735Y25D02*
X746Y25D01*
X835Y25D02*
X846Y25D01*
X935Y25D02*
X946Y25D01*
X1035Y25D02*
X1046Y25D01*
X1135Y25D02*
X1146Y25D01*
X1235Y25D02*
X1246Y25D01*
D02*
G04 End of Copper0*
M02*