; NON-PLATED HOLES START AT T1
; THROUGH (PLATED) HOLES START AT T100
M48
INCH
T100C0.044000
T101C0.036000
%
T100
X009409Y002569
X009409Y005569
X009409Y003569
X009409Y001569
X009409Y004569
T101
X009409Y000569
X001409Y000569
X007409Y007569
X002409Y000569
X008409Y007569
X010409Y000569
X009409Y007569
X001409Y007569
X011409Y000569
X002409Y007569
X012409Y000569
X010409Y007569
X011409Y007569
X003409Y000569
X012409Y007569
X004409Y000569
X003409Y007569
X004409Y007569
X005409Y000569
X006409Y000569
X005409Y007569
X006409Y007569
X007409Y000569
X008409Y000569
T00
M30
