G04 MADE WITH FRITZING*
G04 WWW.FRITZING.ORG*
G04 DOUBLE SIDED*
G04 HOLES PLATED*
G04 CONTOUR ON CENTER OF CONTOUR VECTOR*
%ASAXBY*%
%FSLAX23Y23*%
%MOIN*%
%OFA0B0*%
%SFA1.0B1.0*%
%ADD10C,0.074000*%
%ADD11R,0.001000X0.001000*%
%LNCOPPER1*%
G90*
G70*
G54D10*
X941Y557D03*
X941Y557D03*
X941Y457D03*
X941Y457D03*
X941Y357D03*
X941Y357D03*
X941Y257D03*
X941Y257D03*
X941Y157D03*
X941Y157D03*
G54D11*
X933Y594D02*
X1022Y594D01*
X929Y593D02*
X1025Y593D01*
X926Y592D02*
X1028Y592D01*
X924Y591D02*
X1030Y591D01*
X922Y590D02*
X1032Y590D01*
X921Y589D02*
X1034Y589D01*
X919Y588D02*
X1035Y588D01*
X918Y587D02*
X1037Y587D01*
X917Y586D02*
X1038Y586D01*
X916Y585D02*
X1039Y585D01*
X915Y584D02*
X1040Y584D01*
X914Y583D02*
X1041Y583D01*
X913Y582D02*
X1042Y582D01*
X912Y581D02*
X1043Y581D01*
X911Y580D02*
X1043Y580D01*
X910Y579D02*
X934Y579D01*
X947Y579D02*
X1044Y579D01*
X910Y578D02*
X931Y578D01*
X950Y578D02*
X1045Y578D01*
X909Y577D02*
X929Y577D01*
X952Y577D02*
X1045Y577D01*
X909Y576D02*
X927Y576D01*
X953Y576D02*
X1046Y576D01*
X908Y575D02*
X926Y575D01*
X955Y575D02*
X1047Y575D01*
X908Y574D02*
X925Y574D01*
X956Y574D02*
X1047Y574D01*
X907Y573D02*
X924Y573D01*
X957Y573D02*
X1048Y573D01*
X907Y572D02*
X923Y572D01*
X958Y572D02*
X1048Y572D01*
X906Y571D02*
X922Y571D01*
X958Y571D02*
X1048Y571D01*
X906Y570D02*
X921Y570D01*
X959Y570D02*
X1049Y570D01*
X906Y569D02*
X921Y569D01*
X960Y569D02*
X1049Y569D01*
X905Y568D02*
X920Y568D01*
X960Y568D02*
X1049Y568D01*
X905Y567D02*
X920Y567D01*
X961Y567D02*
X1050Y567D01*
X905Y566D02*
X919Y566D01*
X961Y566D02*
X1050Y566D01*
X905Y565D02*
X919Y565D01*
X962Y565D02*
X1050Y565D01*
X904Y564D02*
X919Y564D01*
X962Y564D02*
X1050Y564D01*
X904Y563D02*
X918Y563D01*
X962Y563D02*
X1050Y563D01*
X904Y562D02*
X918Y562D01*
X962Y562D02*
X1051Y562D01*
X904Y561D02*
X918Y561D01*
X963Y561D02*
X1051Y561D01*
X904Y560D02*
X918Y560D01*
X963Y560D02*
X1051Y560D01*
X904Y559D02*
X918Y559D01*
X963Y559D02*
X1051Y559D01*
X904Y558D02*
X918Y558D01*
X963Y558D02*
X1051Y558D01*
X904Y557D02*
X918Y557D01*
X963Y557D02*
X1051Y557D01*
X904Y556D02*
X918Y556D01*
X963Y556D02*
X1051Y556D01*
X904Y555D02*
X918Y555D01*
X963Y555D02*
X1051Y555D01*
X904Y554D02*
X918Y554D01*
X962Y554D02*
X1051Y554D01*
X904Y553D02*
X918Y553D01*
X962Y553D02*
X1050Y553D01*
X904Y552D02*
X919Y552D01*
X962Y552D02*
X1050Y552D01*
X905Y551D02*
X919Y551D01*
X962Y551D02*
X1050Y551D01*
X905Y550D02*
X919Y550D01*
X961Y550D02*
X1050Y550D01*
X905Y549D02*
X920Y549D01*
X961Y549D02*
X1050Y549D01*
X905Y548D02*
X920Y548D01*
X960Y548D02*
X1049Y548D01*
X905Y547D02*
X921Y547D01*
X960Y547D02*
X1049Y547D01*
X906Y546D02*
X921Y546D01*
X959Y546D02*
X1049Y546D01*
X906Y545D02*
X922Y545D01*
X959Y545D02*
X1048Y545D01*
X907Y544D02*
X923Y544D01*
X958Y544D02*
X1048Y544D01*
X907Y543D02*
X924Y543D01*
X957Y543D02*
X1048Y543D01*
X907Y542D02*
X925Y542D01*
X956Y542D02*
X1047Y542D01*
X908Y541D02*
X926Y541D01*
X955Y541D02*
X1047Y541D01*
X908Y540D02*
X927Y540D01*
X953Y540D02*
X1046Y540D01*
X909Y539D02*
X929Y539D01*
X952Y539D02*
X1046Y539D01*
X910Y538D02*
X931Y538D01*
X950Y538D02*
X1045Y538D01*
X910Y537D02*
X933Y537D01*
X947Y537D02*
X1044Y537D01*
X911Y536D02*
X939Y536D01*
X942Y536D02*
X1044Y536D01*
X912Y535D02*
X1043Y535D01*
X913Y534D02*
X1042Y534D01*
X914Y533D02*
X1041Y533D01*
X914Y532D02*
X1040Y532D01*
X916Y531D02*
X1039Y531D01*
X917Y530D02*
X1038Y530D01*
X918Y529D02*
X1037Y529D01*
X919Y528D02*
X1035Y528D01*
X921Y527D02*
X1034Y527D01*
X922Y526D02*
X1032Y526D01*
X924Y525D02*
X1031Y525D01*
X926Y524D02*
X1029Y524D01*
X929Y523D02*
X1026Y523D01*
X932Y522D02*
X1022Y522D01*
X940Y521D02*
X1014Y521D01*
X932Y494D02*
X1022Y494D01*
X929Y493D02*
X1026Y493D01*
X926Y492D02*
X1028Y492D01*
X924Y491D02*
X1030Y491D01*
X922Y490D02*
X1032Y490D01*
X921Y489D02*
X1034Y489D01*
X919Y488D02*
X1035Y488D01*
X918Y487D02*
X1037Y487D01*
X917Y486D02*
X1038Y486D01*
X916Y485D02*
X1039Y485D01*
X915Y484D02*
X1040Y484D01*
X914Y483D02*
X1041Y483D01*
X913Y482D02*
X1042Y482D01*
X912Y481D02*
X1043Y481D01*
X911Y480D02*
X1044Y480D01*
X910Y479D02*
X934Y479D01*
X947Y479D02*
X1044Y479D01*
X910Y478D02*
X931Y478D01*
X950Y478D02*
X1045Y478D01*
X909Y477D02*
X929Y477D01*
X952Y477D02*
X1046Y477D01*
X909Y476D02*
X927Y476D01*
X953Y476D02*
X1046Y476D01*
X908Y475D02*
X926Y475D01*
X955Y475D02*
X1047Y475D01*
X908Y474D02*
X925Y474D01*
X956Y474D02*
X1047Y474D01*
X907Y473D02*
X924Y473D01*
X957Y473D02*
X1048Y473D01*
X907Y472D02*
X923Y472D01*
X958Y472D02*
X1048Y472D01*
X906Y471D02*
X922Y471D01*
X959Y471D02*
X1048Y471D01*
X906Y470D02*
X921Y470D01*
X959Y470D02*
X1049Y470D01*
X906Y469D02*
X921Y469D01*
X960Y469D02*
X1049Y469D01*
X905Y468D02*
X920Y468D01*
X960Y468D02*
X1049Y468D01*
X905Y467D02*
X920Y467D01*
X961Y467D02*
X1050Y467D01*
X905Y466D02*
X919Y466D01*
X961Y466D02*
X1050Y466D01*
X905Y465D02*
X919Y465D01*
X962Y465D02*
X1050Y465D01*
X904Y464D02*
X919Y464D01*
X962Y464D02*
X1050Y464D01*
X904Y463D02*
X918Y463D01*
X962Y463D02*
X1050Y463D01*
X904Y462D02*
X918Y462D01*
X962Y462D02*
X1051Y462D01*
X904Y461D02*
X918Y461D01*
X963Y461D02*
X1051Y461D01*
X904Y460D02*
X918Y460D01*
X963Y460D02*
X1051Y460D01*
X904Y459D02*
X918Y459D01*
X963Y459D02*
X1051Y459D01*
X904Y458D02*
X918Y458D01*
X963Y458D02*
X1051Y458D01*
X904Y457D02*
X918Y457D01*
X963Y457D02*
X1051Y457D01*
X904Y456D02*
X918Y456D01*
X963Y456D02*
X1051Y456D01*
X904Y455D02*
X918Y455D01*
X963Y455D02*
X1051Y455D01*
X904Y454D02*
X918Y454D01*
X962Y454D02*
X1051Y454D01*
X904Y453D02*
X918Y453D01*
X962Y453D02*
X1050Y453D01*
X904Y452D02*
X919Y452D01*
X962Y452D02*
X1050Y452D01*
X905Y451D02*
X919Y451D01*
X962Y451D02*
X1050Y451D01*
X905Y450D02*
X919Y450D01*
X961Y450D02*
X1050Y450D01*
X905Y449D02*
X920Y449D01*
X961Y449D02*
X1050Y449D01*
X905Y448D02*
X920Y448D01*
X960Y448D02*
X1049Y448D01*
X906Y447D02*
X921Y447D01*
X960Y447D02*
X1049Y447D01*
X906Y446D02*
X921Y446D01*
X959Y446D02*
X1049Y446D01*
X906Y445D02*
X922Y445D01*
X958Y445D02*
X1048Y445D01*
X907Y444D02*
X923Y444D01*
X958Y444D02*
X1048Y444D01*
X907Y443D02*
X924Y443D01*
X957Y443D02*
X1048Y443D01*
X908Y442D02*
X925Y442D01*
X956Y442D02*
X1047Y442D01*
X908Y441D02*
X926Y441D01*
X955Y441D02*
X1047Y441D01*
X909Y440D02*
X927Y440D01*
X953Y440D02*
X1046Y440D01*
X909Y439D02*
X929Y439D01*
X952Y439D02*
X1046Y439D01*
X910Y438D02*
X931Y438D01*
X950Y438D02*
X1045Y438D01*
X910Y437D02*
X934Y437D01*
X947Y437D02*
X1044Y437D01*
X911Y436D02*
X1044Y436D01*
X912Y435D02*
X1043Y435D01*
X913Y434D02*
X1042Y434D01*
X914Y433D02*
X1041Y433D01*
X915Y432D02*
X1040Y432D01*
X916Y431D02*
X1039Y431D01*
X917Y430D02*
X1038Y430D01*
X918Y429D02*
X1037Y429D01*
X919Y428D02*
X1035Y428D01*
X921Y427D02*
X1034Y427D01*
X922Y426D02*
X1032Y426D01*
X924Y425D02*
X1030Y425D01*
X926Y424D02*
X1028Y424D01*
X929Y423D02*
X1026Y423D01*
X933Y422D02*
X1022Y422D01*
X939Y395D02*
X1015Y395D01*
X932Y394D02*
X1023Y394D01*
X929Y393D02*
X1026Y393D01*
X926Y392D02*
X1029Y392D01*
X924Y391D02*
X1031Y391D01*
X922Y390D02*
X1032Y390D01*
X921Y389D02*
X1034Y389D01*
X919Y388D02*
X1036Y388D01*
X918Y387D02*
X1037Y387D01*
X917Y386D02*
X1038Y386D01*
X915Y385D02*
X1039Y385D01*
X914Y384D02*
X1040Y384D01*
X914Y383D02*
X1041Y383D01*
X913Y382D02*
X1042Y382D01*
X912Y381D02*
X1043Y381D01*
X911Y380D02*
X938Y380D01*
X943Y380D02*
X1044Y380D01*
X910Y379D02*
X933Y379D01*
X947Y379D02*
X1044Y379D01*
X910Y378D02*
X931Y378D01*
X950Y378D02*
X1045Y378D01*
X909Y377D02*
X929Y377D01*
X952Y377D02*
X1046Y377D01*
X908Y376D02*
X927Y376D01*
X954Y376D02*
X1046Y376D01*
X908Y375D02*
X926Y375D01*
X955Y375D02*
X1047Y375D01*
X907Y374D02*
X925Y374D01*
X956Y374D02*
X1047Y374D01*
X907Y373D02*
X924Y373D01*
X957Y373D02*
X1048Y373D01*
X907Y372D02*
X923Y372D01*
X958Y372D02*
X1048Y372D01*
X906Y371D02*
X922Y371D01*
X959Y371D02*
X1048Y371D01*
X906Y370D02*
X921Y370D01*
X959Y370D02*
X1049Y370D01*
X905Y369D02*
X921Y369D01*
X960Y369D02*
X1049Y369D01*
X905Y368D02*
X920Y368D01*
X960Y368D02*
X1049Y368D01*
X905Y367D02*
X920Y367D01*
X961Y367D02*
X1050Y367D01*
X905Y366D02*
X919Y366D01*
X961Y366D02*
X1050Y366D01*
X905Y365D02*
X919Y365D01*
X962Y365D02*
X1050Y365D01*
X904Y364D02*
X919Y364D01*
X962Y364D02*
X1050Y364D01*
X904Y363D02*
X918Y363D01*
X962Y363D02*
X1050Y363D01*
X904Y362D02*
X918Y362D01*
X962Y362D02*
X1051Y362D01*
X904Y361D02*
X918Y361D01*
X963Y361D02*
X1051Y361D01*
X904Y360D02*
X918Y360D01*
X963Y360D02*
X1051Y360D01*
X904Y359D02*
X918Y359D01*
X963Y359D02*
X1051Y359D01*
X904Y358D02*
X918Y358D01*
X963Y358D02*
X1051Y358D01*
X904Y357D02*
X918Y357D01*
X963Y357D02*
X1051Y357D01*
X904Y356D02*
X918Y356D01*
X963Y356D02*
X1051Y356D01*
X904Y355D02*
X918Y355D01*
X963Y355D02*
X1051Y355D01*
X904Y354D02*
X918Y354D01*
X962Y354D02*
X1051Y354D01*
X904Y353D02*
X918Y353D01*
X962Y353D02*
X1050Y353D01*
X904Y352D02*
X919Y352D01*
X962Y352D02*
X1050Y352D01*
X905Y351D02*
X919Y351D01*
X962Y351D02*
X1050Y351D01*
X905Y350D02*
X919Y350D01*
X961Y350D02*
X1050Y350D01*
X905Y349D02*
X920Y349D01*
X961Y349D02*
X1050Y349D01*
X905Y348D02*
X920Y348D01*
X960Y348D02*
X1049Y348D01*
X906Y347D02*
X921Y347D01*
X960Y347D02*
X1049Y347D01*
X906Y346D02*
X922Y346D01*
X959Y346D02*
X1049Y346D01*
X906Y345D02*
X922Y345D01*
X958Y345D02*
X1048Y345D01*
X907Y344D02*
X923Y344D01*
X958Y344D02*
X1048Y344D01*
X907Y343D02*
X924Y343D01*
X957Y343D02*
X1048Y343D01*
X908Y342D02*
X925Y342D01*
X956Y342D02*
X1047Y342D01*
X908Y341D02*
X926Y341D01*
X954Y341D02*
X1047Y341D01*
X909Y340D02*
X927Y340D01*
X953Y340D02*
X1046Y340D01*
X909Y339D02*
X929Y339D01*
X952Y339D02*
X1045Y339D01*
X910Y338D02*
X931Y338D01*
X950Y338D02*
X1045Y338D01*
X910Y337D02*
X934Y337D01*
X947Y337D02*
X1044Y337D01*
X911Y336D02*
X1043Y336D01*
X912Y335D02*
X1043Y335D01*
X913Y334D02*
X1042Y334D01*
X914Y333D02*
X1041Y333D01*
X915Y332D02*
X1040Y332D01*
X916Y331D02*
X1039Y331D01*
X917Y330D02*
X1038Y330D01*
X918Y329D02*
X1037Y329D01*
X919Y328D02*
X1035Y328D01*
X921Y327D02*
X1034Y327D01*
X923Y326D02*
X1032Y326D01*
X924Y325D02*
X1030Y325D01*
X927Y324D02*
X1028Y324D01*
X929Y323D02*
X1025Y323D01*
X933Y322D02*
X1022Y322D01*
X938Y295D02*
X1017Y295D01*
X932Y294D02*
X1023Y294D01*
X928Y293D02*
X1026Y293D01*
X926Y292D02*
X1029Y292D01*
X924Y291D02*
X1031Y291D01*
X922Y290D02*
X1033Y290D01*
X920Y289D02*
X1034Y289D01*
X919Y288D02*
X1036Y288D01*
X918Y287D02*
X1037Y287D01*
X917Y286D02*
X1038Y286D01*
X915Y285D02*
X1039Y285D01*
X914Y284D02*
X1040Y284D01*
X913Y283D02*
X1041Y283D01*
X913Y282D02*
X1042Y282D01*
X912Y281D02*
X1043Y281D01*
X911Y280D02*
X937Y280D01*
X943Y280D02*
X1044Y280D01*
X910Y279D02*
X933Y279D01*
X948Y279D02*
X1044Y279D01*
X910Y278D02*
X930Y278D01*
X950Y278D02*
X1045Y278D01*
X909Y277D02*
X929Y277D01*
X952Y277D02*
X1046Y277D01*
X908Y276D02*
X927Y276D01*
X954Y276D02*
X1046Y276D01*
X908Y275D02*
X926Y275D01*
X955Y275D02*
X1047Y275D01*
X907Y274D02*
X925Y274D01*
X956Y274D02*
X1047Y274D01*
X907Y273D02*
X924Y273D01*
X957Y273D02*
X1048Y273D01*
X907Y272D02*
X923Y272D01*
X958Y272D02*
X1048Y272D01*
X906Y271D02*
X922Y271D01*
X959Y271D02*
X1049Y271D01*
X906Y270D02*
X921Y270D01*
X959Y270D02*
X1049Y270D01*
X905Y269D02*
X921Y269D01*
X960Y269D02*
X1049Y269D01*
X905Y268D02*
X920Y268D01*
X960Y268D02*
X1049Y268D01*
X905Y267D02*
X920Y267D01*
X961Y267D02*
X1050Y267D01*
X905Y266D02*
X919Y266D01*
X961Y266D02*
X1050Y266D01*
X904Y265D02*
X919Y265D01*
X962Y265D02*
X1050Y265D01*
X904Y264D02*
X919Y264D01*
X962Y264D02*
X1050Y264D01*
X904Y263D02*
X918Y263D01*
X962Y263D02*
X1050Y263D01*
X904Y262D02*
X918Y262D01*
X962Y262D02*
X1051Y262D01*
X904Y261D02*
X918Y261D01*
X963Y261D02*
X1051Y261D01*
X904Y260D02*
X918Y260D01*
X963Y260D02*
X1051Y260D01*
X904Y259D02*
X918Y259D01*
X963Y259D02*
X1051Y259D01*
X904Y258D02*
X918Y258D01*
X963Y258D02*
X1051Y258D01*
X904Y257D02*
X918Y257D01*
X963Y257D02*
X1051Y257D01*
X904Y256D02*
X918Y256D01*
X963Y256D02*
X1051Y256D01*
X904Y255D02*
X918Y255D01*
X963Y255D02*
X1051Y255D01*
X904Y254D02*
X918Y254D01*
X962Y254D02*
X1051Y254D01*
X904Y253D02*
X919Y253D01*
X962Y253D02*
X1050Y253D01*
X904Y252D02*
X919Y252D01*
X962Y252D02*
X1050Y252D01*
X905Y251D02*
X919Y251D01*
X962Y251D02*
X1050Y251D01*
X905Y250D02*
X919Y250D01*
X961Y250D02*
X1050Y250D01*
X905Y249D02*
X920Y249D01*
X961Y249D02*
X1050Y249D01*
X905Y248D02*
X920Y248D01*
X960Y248D02*
X1049Y248D01*
X906Y247D02*
X921Y247D01*
X960Y247D02*
X1049Y247D01*
X906Y246D02*
X922Y246D01*
X959Y246D02*
X1049Y246D01*
X906Y245D02*
X922Y245D01*
X958Y245D02*
X1048Y245D01*
X907Y244D02*
X923Y244D01*
X957Y244D02*
X1048Y244D01*
X907Y243D02*
X924Y243D01*
X957Y243D02*
X1048Y243D01*
X908Y242D02*
X925Y242D01*
X956Y242D02*
X1047Y242D01*
X908Y241D02*
X926Y241D01*
X954Y241D02*
X1047Y241D01*
X909Y240D02*
X928Y240D01*
X953Y240D02*
X1046Y240D01*
X909Y239D02*
X929Y239D01*
X951Y239D02*
X1045Y239D01*
X910Y238D02*
X931Y238D01*
X949Y238D02*
X1045Y238D01*
X911Y237D02*
X934Y237D01*
X946Y237D02*
X1044Y237D01*
X911Y236D02*
X1043Y236D01*
X912Y235D02*
X1043Y235D01*
X913Y234D02*
X1042Y234D01*
X914Y233D02*
X1041Y233D01*
X915Y232D02*
X1040Y232D01*
X916Y231D02*
X1039Y231D01*
X917Y230D02*
X1038Y230D01*
X918Y229D02*
X1036Y229D01*
X920Y228D02*
X1035Y228D01*
X921Y227D02*
X1034Y227D01*
X923Y226D02*
X1032Y226D01*
X925Y225D02*
X1030Y225D01*
X927Y224D02*
X1028Y224D01*
X930Y223D02*
X1025Y223D01*
X933Y222D02*
X1021Y222D01*
X937Y195D02*
X1018Y195D01*
X931Y194D02*
X1023Y194D01*
X928Y193D02*
X1026Y193D01*
X926Y192D02*
X1029Y192D01*
X924Y191D02*
X1031Y191D01*
X922Y190D02*
X1033Y190D01*
X920Y189D02*
X1034Y189D01*
X919Y188D02*
X1036Y188D01*
X918Y187D02*
X1037Y187D01*
X916Y186D02*
X1038Y186D01*
X915Y185D02*
X1039Y185D01*
X914Y184D02*
X1040Y184D01*
X913Y183D02*
X1041Y183D01*
X912Y182D02*
X1042Y182D01*
X912Y181D02*
X1043Y181D01*
X911Y180D02*
X937Y180D01*
X944Y180D02*
X1044Y180D01*
X910Y179D02*
X933Y179D01*
X948Y179D02*
X1044Y179D01*
X910Y178D02*
X930Y178D01*
X950Y178D02*
X1045Y178D01*
X909Y177D02*
X928Y177D01*
X952Y177D02*
X1046Y177D01*
X908Y176D02*
X927Y176D01*
X954Y176D02*
X1046Y176D01*
X908Y175D02*
X926Y175D01*
X955Y175D02*
X1047Y175D01*
X907Y174D02*
X925Y174D01*
X956Y174D02*
X1047Y174D01*
X907Y173D02*
X924Y173D01*
X957Y173D02*
X1048Y173D01*
X906Y172D02*
X923Y172D01*
X958Y172D02*
X1048Y172D01*
X906Y171D02*
X922Y171D01*
X959Y171D02*
X1049Y171D01*
X906Y170D02*
X921Y170D01*
X959Y170D02*
X1049Y170D01*
X905Y169D02*
X921Y169D01*
X960Y169D02*
X1049Y169D01*
X905Y168D02*
X920Y168D01*
X960Y168D02*
X1050Y168D01*
X905Y167D02*
X920Y167D01*
X961Y167D02*
X1050Y167D01*
X905Y166D02*
X919Y166D01*
X961Y166D02*
X1050Y166D01*
X904Y165D02*
X919Y165D01*
X962Y165D02*
X1050Y165D01*
X904Y164D02*
X919Y164D01*
X962Y164D02*
X1050Y164D01*
X904Y163D02*
X918Y163D01*
X962Y163D02*
X1050Y163D01*
X904Y162D02*
X918Y162D01*
X962Y162D02*
X1051Y162D01*
X904Y161D02*
X918Y161D01*
X963Y161D02*
X1051Y161D01*
X904Y160D02*
X918Y160D01*
X963Y160D02*
X1051Y160D01*
X904Y159D02*
X918Y159D01*
X963Y159D02*
X1051Y159D01*
X904Y158D02*
X918Y158D01*
X963Y158D02*
X1051Y158D01*
X904Y157D02*
X918Y157D01*
X963Y157D02*
X1051Y157D01*
X904Y156D02*
X918Y156D01*
X963Y156D02*
X1051Y156D01*
X904Y155D02*
X918Y155D01*
X963Y155D02*
X1051Y155D01*
X904Y154D02*
X918Y154D01*
X962Y154D02*
X1051Y154D01*
X904Y153D02*
X919Y153D01*
X962Y153D02*
X1050Y153D01*
X904Y152D02*
X919Y152D01*
X962Y152D02*
X1050Y152D01*
X905Y151D02*
X919Y151D01*
X961Y151D02*
X1050Y151D01*
X905Y150D02*
X920Y150D01*
X961Y150D02*
X1050Y150D01*
X905Y149D02*
X920Y149D01*
X961Y149D02*
X1050Y149D01*
X905Y148D02*
X921Y148D01*
X960Y148D02*
X1049Y148D01*
X906Y147D02*
X921Y147D01*
X960Y147D02*
X1049Y147D01*
X906Y146D02*
X922Y146D01*
X959Y146D02*
X1049Y146D01*
X906Y145D02*
X922Y145D01*
X958Y145D02*
X1048Y145D01*
X907Y144D02*
X923Y144D01*
X957Y144D02*
X1048Y144D01*
X907Y143D02*
X924Y143D01*
X957Y143D02*
X1047Y143D01*
X908Y142D02*
X925Y142D01*
X955Y142D02*
X1047Y142D01*
X908Y141D02*
X926Y141D01*
X954Y141D02*
X1047Y141D01*
X909Y140D02*
X928Y140D01*
X953Y140D02*
X1046Y140D01*
X909Y139D02*
X930Y139D01*
X951Y139D02*
X1045Y139D01*
X910Y138D02*
X931Y138D01*
X949Y138D02*
X1045Y138D01*
X911Y137D02*
X935Y137D01*
X946Y137D02*
X1044Y137D01*
X911Y136D02*
X1043Y136D01*
X912Y135D02*
X1043Y135D01*
X913Y134D02*
X1042Y134D01*
X914Y133D02*
X1041Y133D01*
X915Y132D02*
X1040Y132D01*
X916Y131D02*
X1039Y131D01*
X917Y130D02*
X1038Y130D01*
X918Y129D02*
X1036Y129D01*
X920Y128D02*
X1035Y128D01*
X921Y127D02*
X1033Y127D01*
X923Y126D02*
X1032Y126D01*
X925Y125D02*
X1030Y125D01*
X927Y124D02*
X1028Y124D01*
X930Y123D02*
X1025Y123D01*
X934Y122D02*
X1021Y122D01*
D02*
G04 End of Copper1*
M02*