G04 MADE WITH FRITZING*
G04 WWW.FRITZING.ORG*
G04 DOUBLE SIDED*
G04 HOLES PLATED*
G04 CONTOUR ON CENTER OF CONTOUR VECTOR*
%ASAXBY*%
%FSLAX23Y23*%
%MOIN*%
%OFA0B0*%
%SFA1.0B1.0*%
%ADD10C,0.084000*%
%ADD11R,0.001000X0.001000*%
%LNMASK1*%
G90*
G70*
G54D10*
X941Y557D03*
X941Y557D03*
X941Y457D03*
X941Y457D03*
X941Y357D03*
X941Y357D03*
X941Y257D03*
X941Y257D03*
X941Y157D03*
X941Y157D03*
G54D11*
X933Y599D02*
X1022Y599D01*
X929Y598D02*
X1026Y598D01*
X926Y597D02*
X1029Y597D01*
X924Y596D02*
X1031Y596D01*
X922Y595D02*
X1033Y595D01*
X920Y594D02*
X1035Y594D01*
X918Y593D02*
X1036Y593D01*
X917Y592D02*
X1038Y592D01*
X916Y591D02*
X1039Y591D01*
X914Y590D02*
X1040Y590D01*
X913Y589D02*
X1041Y589D01*
X912Y588D02*
X1043Y588D01*
X911Y587D02*
X1044Y587D01*
X910Y586D02*
X1044Y586D01*
X909Y585D02*
X1045Y585D01*
X908Y584D02*
X1046Y584D01*
X908Y583D02*
X1047Y583D01*
X907Y582D02*
X1048Y582D01*
X906Y581D02*
X1049Y581D01*
X906Y580D02*
X1049Y580D01*
X905Y579D02*
X1050Y579D01*
X904Y578D02*
X1050Y578D01*
X904Y577D02*
X1051Y577D01*
X903Y576D02*
X1051Y576D01*
X903Y575D02*
X1052Y575D01*
X902Y574D02*
X934Y574D01*
X947Y574D02*
X1052Y574D01*
X902Y573D02*
X932Y573D01*
X949Y573D02*
X1053Y573D01*
X901Y572D02*
X930Y572D01*
X951Y572D02*
X1053Y572D01*
X901Y571D02*
X929Y571D01*
X952Y571D02*
X1054Y571D01*
X901Y570D02*
X927Y570D01*
X953Y570D02*
X1054Y570D01*
X900Y569D02*
X927Y569D01*
X954Y569D02*
X1054Y569D01*
X900Y568D02*
X926Y568D01*
X955Y568D02*
X1054Y568D01*
X900Y567D02*
X925Y567D01*
X955Y567D02*
X1055Y567D01*
X900Y566D02*
X925Y566D01*
X956Y566D02*
X1055Y566D01*
X900Y565D02*
X924Y565D01*
X956Y565D02*
X1055Y565D01*
X899Y564D02*
X924Y564D01*
X957Y564D02*
X1055Y564D01*
X899Y563D02*
X924Y563D01*
X957Y563D02*
X1055Y563D01*
X899Y562D02*
X923Y562D01*
X957Y562D02*
X1056Y562D01*
X899Y561D02*
X923Y561D01*
X958Y561D02*
X1056Y561D01*
X899Y560D02*
X923Y560D01*
X958Y560D02*
X1056Y560D01*
X899Y559D02*
X923Y559D01*
X958Y559D02*
X1056Y559D01*
X899Y558D02*
X923Y558D01*
X958Y558D02*
X1056Y558D01*
X899Y557D02*
X923Y557D01*
X958Y557D02*
X1056Y557D01*
X899Y556D02*
X923Y556D01*
X958Y556D02*
X1056Y556D01*
X899Y555D02*
X923Y555D01*
X958Y555D02*
X1056Y555D01*
X899Y554D02*
X923Y554D01*
X957Y554D02*
X1056Y554D01*
X899Y553D02*
X924Y553D01*
X957Y553D02*
X1055Y553D01*
X899Y552D02*
X924Y552D01*
X957Y552D02*
X1055Y552D01*
X899Y551D02*
X924Y551D01*
X957Y551D02*
X1055Y551D01*
X900Y550D02*
X925Y550D01*
X956Y550D02*
X1055Y550D01*
X900Y549D02*
X925Y549D01*
X956Y549D02*
X1055Y549D01*
X900Y548D02*
X926Y548D01*
X955Y548D02*
X1054Y548D01*
X900Y547D02*
X926Y547D01*
X954Y547D02*
X1054Y547D01*
X901Y546D02*
X927Y546D01*
X953Y546D02*
X1054Y546D01*
X901Y545D02*
X928Y545D01*
X952Y545D02*
X1054Y545D01*
X901Y544D02*
X930Y544D01*
X951Y544D02*
X1053Y544D01*
X902Y543D02*
X931Y543D01*
X949Y543D02*
X1053Y543D01*
X902Y542D02*
X934Y542D01*
X947Y542D02*
X1052Y542D01*
X903Y541D02*
X939Y541D01*
X941Y541D02*
X1052Y541D01*
X903Y540D02*
X1052Y540D01*
X904Y539D02*
X1051Y539D01*
X904Y538D02*
X1050Y538D01*
X905Y537D02*
X1050Y537D01*
X905Y536D02*
X1049Y536D01*
X906Y535D02*
X1049Y535D01*
X907Y534D02*
X1048Y534D01*
X908Y533D02*
X1047Y533D01*
X908Y532D02*
X1046Y532D01*
X909Y531D02*
X1046Y531D01*
X910Y530D02*
X1045Y530D01*
X911Y529D02*
X1044Y529D01*
X912Y528D02*
X1043Y528D01*
X913Y527D02*
X1042Y527D01*
X914Y526D02*
X1041Y526D01*
X915Y525D02*
X1039Y525D01*
X917Y524D02*
X1038Y524D01*
X918Y523D02*
X1037Y523D01*
X920Y522D02*
X1035Y522D01*
X921Y521D02*
X1033Y521D01*
X923Y520D02*
X1031Y520D01*
X926Y519D02*
X1029Y519D01*
X928Y518D02*
X1026Y518D01*
X932Y517D02*
X1023Y517D01*
X940Y516D02*
X1014Y516D01*
X932Y499D02*
X1022Y499D01*
X929Y498D02*
X1026Y498D01*
X926Y497D02*
X1029Y497D01*
X924Y496D02*
X1031Y496D01*
X922Y495D02*
X1033Y495D01*
X920Y494D02*
X1035Y494D01*
X918Y493D02*
X1036Y493D01*
X917Y492D02*
X1038Y492D01*
X915Y491D02*
X1039Y491D01*
X914Y490D02*
X1040Y490D01*
X913Y489D02*
X1042Y489D01*
X912Y488D02*
X1043Y488D01*
X911Y487D02*
X1044Y487D01*
X910Y486D02*
X1045Y486D01*
X909Y485D02*
X1045Y485D01*
X908Y484D02*
X1046Y484D01*
X908Y483D02*
X1047Y483D01*
X907Y482D02*
X1048Y482D01*
X906Y481D02*
X1049Y481D01*
X905Y480D02*
X1049Y480D01*
X905Y479D02*
X1050Y479D01*
X904Y478D02*
X1050Y478D01*
X904Y477D02*
X1051Y477D01*
X903Y476D02*
X1051Y476D01*
X903Y475D02*
X1052Y475D01*
X902Y474D02*
X934Y474D01*
X947Y474D02*
X1052Y474D01*
X902Y473D02*
X931Y473D01*
X949Y473D02*
X1053Y473D01*
X901Y472D02*
X930Y472D01*
X951Y472D02*
X1053Y472D01*
X901Y471D02*
X928Y471D01*
X952Y471D02*
X1054Y471D01*
X901Y470D02*
X927Y470D01*
X953Y470D02*
X1054Y470D01*
X900Y469D02*
X927Y469D01*
X954Y469D02*
X1054Y469D01*
X900Y468D02*
X926Y468D01*
X955Y468D02*
X1054Y468D01*
X900Y467D02*
X925Y467D01*
X956Y467D02*
X1055Y467D01*
X900Y466D02*
X925Y466D01*
X956Y466D02*
X1055Y466D01*
X900Y465D02*
X924Y465D01*
X957Y465D02*
X1055Y465D01*
X899Y464D02*
X924Y464D01*
X957Y464D02*
X1055Y464D01*
X899Y463D02*
X924Y463D01*
X957Y463D02*
X1055Y463D01*
X899Y462D02*
X923Y462D01*
X957Y462D02*
X1056Y462D01*
X899Y461D02*
X923Y461D01*
X958Y461D02*
X1056Y461D01*
X899Y460D02*
X923Y460D01*
X958Y460D02*
X1056Y460D01*
X899Y459D02*
X923Y459D01*
X958Y459D02*
X1056Y459D01*
X899Y458D02*
X923Y458D01*
X958Y458D02*
X1056Y458D01*
X899Y457D02*
X923Y457D01*
X958Y457D02*
X1056Y457D01*
X899Y456D02*
X923Y456D01*
X958Y456D02*
X1056Y456D01*
X899Y455D02*
X923Y455D01*
X958Y455D02*
X1056Y455D01*
X899Y454D02*
X923Y454D01*
X957Y454D02*
X1056Y454D01*
X899Y453D02*
X924Y453D01*
X957Y453D02*
X1055Y453D01*
X899Y452D02*
X924Y452D01*
X957Y452D02*
X1055Y452D01*
X900Y451D02*
X924Y451D01*
X957Y451D02*
X1055Y451D01*
X900Y450D02*
X925Y450D01*
X956Y450D02*
X1055Y450D01*
X900Y449D02*
X925Y449D01*
X956Y449D02*
X1055Y449D01*
X900Y448D02*
X926Y448D01*
X955Y448D02*
X1054Y448D01*
X900Y447D02*
X927Y447D01*
X954Y447D02*
X1054Y447D01*
X901Y446D02*
X927Y446D01*
X953Y446D02*
X1054Y446D01*
X901Y445D02*
X928Y445D01*
X952Y445D02*
X1054Y445D01*
X901Y444D02*
X930Y444D01*
X951Y444D02*
X1053Y444D01*
X902Y443D02*
X932Y443D01*
X949Y443D02*
X1053Y443D01*
X902Y442D02*
X934Y442D01*
X947Y442D02*
X1052Y442D01*
X903Y441D02*
X1052Y441D01*
X903Y440D02*
X1051Y440D01*
X904Y439D02*
X1051Y439D01*
X904Y438D02*
X1050Y438D01*
X905Y437D02*
X1050Y437D01*
X905Y436D02*
X1049Y436D01*
X906Y435D02*
X1049Y435D01*
X907Y434D02*
X1048Y434D01*
X908Y433D02*
X1047Y433D01*
X908Y432D02*
X1046Y432D01*
X909Y431D02*
X1045Y431D01*
X910Y430D02*
X1045Y430D01*
X911Y429D02*
X1044Y429D01*
X912Y428D02*
X1043Y428D01*
X913Y427D02*
X1042Y427D01*
X914Y426D02*
X1040Y426D01*
X916Y425D02*
X1039Y425D01*
X917Y424D02*
X1038Y424D01*
X918Y423D02*
X1036Y423D01*
X920Y422D02*
X1035Y422D01*
X922Y421D02*
X1033Y421D01*
X924Y420D02*
X1031Y420D01*
X926Y419D02*
X1029Y419D01*
X929Y418D02*
X1026Y418D01*
X932Y417D02*
X1022Y417D01*
X940Y400D02*
X1015Y400D01*
X932Y399D02*
X1023Y399D01*
X928Y398D02*
X1026Y398D01*
X926Y397D02*
X1029Y397D01*
X923Y396D02*
X1031Y396D01*
X921Y395D02*
X1033Y395D01*
X920Y394D02*
X1035Y394D01*
X918Y393D02*
X1037Y393D01*
X917Y392D02*
X1038Y392D01*
X915Y391D02*
X1039Y391D01*
X914Y390D02*
X1041Y390D01*
X913Y389D02*
X1042Y389D01*
X912Y388D02*
X1043Y388D01*
X911Y387D02*
X1044Y387D01*
X910Y386D02*
X1045Y386D01*
X909Y385D02*
X1046Y385D01*
X908Y384D02*
X1046Y384D01*
X908Y383D02*
X1047Y383D01*
X907Y382D02*
X1048Y382D01*
X906Y381D02*
X1049Y381D01*
X905Y380D02*
X1049Y380D01*
X905Y379D02*
X1050Y379D01*
X904Y378D02*
X1050Y378D01*
X904Y377D02*
X1051Y377D01*
X903Y376D02*
X1052Y376D01*
X903Y375D02*
X939Y375D01*
X942Y375D02*
X1052Y375D01*
X902Y374D02*
X933Y374D01*
X947Y374D02*
X1052Y374D01*
X902Y373D02*
X931Y373D01*
X949Y373D02*
X1053Y373D01*
X901Y372D02*
X930Y372D01*
X951Y372D02*
X1053Y372D01*
X901Y371D02*
X928Y371D01*
X952Y371D02*
X1054Y371D01*
X901Y370D02*
X927Y370D01*
X953Y370D02*
X1054Y370D01*
X900Y369D02*
X926Y369D01*
X954Y369D02*
X1054Y369D01*
X900Y368D02*
X926Y368D01*
X955Y368D02*
X1055Y368D01*
X900Y367D02*
X925Y367D01*
X956Y367D02*
X1055Y367D01*
X900Y366D02*
X925Y366D01*
X956Y366D02*
X1055Y366D01*
X899Y365D02*
X924Y365D01*
X957Y365D02*
X1055Y365D01*
X899Y364D02*
X924Y364D01*
X957Y364D02*
X1055Y364D01*
X899Y363D02*
X924Y363D01*
X957Y363D02*
X1055Y363D01*
X899Y362D02*
X923Y362D01*
X957Y362D02*
X1056Y362D01*
X899Y361D02*
X923Y361D01*
X958Y361D02*
X1056Y361D01*
X899Y360D02*
X923Y360D01*
X958Y360D02*
X1056Y360D01*
X899Y359D02*
X923Y359D01*
X958Y359D02*
X1056Y359D01*
X899Y358D02*
X923Y358D01*
X958Y358D02*
X1056Y358D01*
X899Y357D02*
X923Y357D01*
X958Y357D02*
X1056Y357D01*
X899Y356D02*
X923Y356D01*
X958Y356D02*
X1056Y356D01*
X899Y355D02*
X923Y355D01*
X958Y355D02*
X1056Y355D01*
X899Y354D02*
X923Y354D01*
X957Y354D02*
X1056Y354D01*
X899Y353D02*
X924Y353D01*
X957Y353D02*
X1055Y353D01*
X899Y352D02*
X924Y352D01*
X957Y352D02*
X1055Y352D01*
X900Y351D02*
X924Y351D01*
X956Y351D02*
X1055Y351D01*
X900Y350D02*
X925Y350D01*
X956Y350D02*
X1055Y350D01*
X900Y349D02*
X925Y349D01*
X955Y349D02*
X1055Y349D01*
X900Y348D02*
X926Y348D01*
X955Y348D02*
X1054Y348D01*
X900Y347D02*
X927Y347D01*
X954Y347D02*
X1054Y347D01*
X901Y346D02*
X927Y346D01*
X953Y346D02*
X1054Y346D01*
X901Y345D02*
X929Y345D01*
X952Y345D02*
X1054Y345D01*
X902Y344D02*
X930Y344D01*
X951Y344D02*
X1053Y344D01*
X902Y343D02*
X932Y343D01*
X949Y343D02*
X1053Y343D01*
X902Y342D02*
X934Y342D01*
X946Y342D02*
X1052Y342D01*
X903Y341D02*
X1052Y341D01*
X903Y340D02*
X1051Y340D01*
X904Y339D02*
X1051Y339D01*
X904Y338D02*
X1050Y338D01*
X905Y337D02*
X1050Y337D01*
X906Y336D02*
X1049Y336D01*
X906Y335D02*
X1048Y335D01*
X907Y334D02*
X1048Y334D01*
X908Y333D02*
X1047Y333D01*
X908Y332D02*
X1046Y332D01*
X909Y331D02*
X1045Y331D01*
X910Y330D02*
X1044Y330D01*
X911Y329D02*
X1044Y329D01*
X912Y328D02*
X1043Y328D01*
X913Y327D02*
X1041Y327D01*
X914Y326D02*
X1040Y326D01*
X916Y325D02*
X1039Y325D01*
X917Y324D02*
X1038Y324D01*
X918Y323D02*
X1036Y323D01*
X920Y322D02*
X1035Y322D01*
X922Y321D02*
X1033Y321D01*
X924Y320D02*
X1031Y320D01*
X926Y319D02*
X1028Y319D01*
X929Y318D02*
X1026Y318D01*
X933Y317D02*
X1022Y317D01*
X938Y300D02*
X1017Y300D01*
X932Y299D02*
X1023Y299D01*
X928Y298D02*
X1027Y298D01*
X925Y297D02*
X1029Y297D01*
X923Y296D02*
X1031Y296D01*
X921Y295D02*
X1033Y295D01*
X920Y294D02*
X1035Y294D01*
X918Y293D02*
X1037Y293D01*
X917Y292D02*
X1038Y292D01*
X915Y291D02*
X1039Y291D01*
X914Y290D02*
X1041Y290D01*
X913Y289D02*
X1042Y289D01*
X912Y288D02*
X1043Y288D01*
X911Y287D02*
X1044Y287D01*
X910Y286D02*
X1045Y286D01*
X909Y285D02*
X1046Y285D01*
X908Y284D02*
X1046Y284D01*
X907Y283D02*
X1047Y283D01*
X907Y282D02*
X1048Y282D01*
X906Y281D02*
X1049Y281D01*
X905Y280D02*
X1049Y280D01*
X905Y279D02*
X1050Y279D01*
X904Y278D02*
X1051Y278D01*
X904Y277D02*
X1051Y277D01*
X903Y276D02*
X1052Y276D01*
X903Y275D02*
X938Y275D01*
X943Y275D02*
X1052Y275D01*
X902Y274D02*
X933Y274D01*
X947Y274D02*
X1053Y274D01*
X902Y273D02*
X931Y273D01*
X950Y273D02*
X1053Y273D01*
X901Y272D02*
X929Y272D01*
X951Y272D02*
X1053Y272D01*
X901Y271D02*
X928Y271D01*
X952Y271D02*
X1054Y271D01*
X901Y270D02*
X927Y270D01*
X953Y270D02*
X1054Y270D01*
X900Y269D02*
X926Y269D01*
X954Y269D02*
X1054Y269D01*
X900Y268D02*
X926Y268D01*
X955Y268D02*
X1055Y268D01*
X900Y267D02*
X925Y267D01*
X956Y267D02*
X1055Y267D01*
X900Y266D02*
X925Y266D01*
X956Y266D02*
X1055Y266D01*
X899Y265D02*
X924Y265D01*
X957Y265D02*
X1055Y265D01*
X899Y264D02*
X924Y264D01*
X957Y264D02*
X1055Y264D01*
X899Y263D02*
X923Y263D01*
X957Y263D02*
X1056Y263D01*
X899Y262D02*
X923Y262D01*
X957Y262D02*
X1056Y262D01*
X899Y261D02*
X923Y261D01*
X958Y261D02*
X1056Y261D01*
X899Y260D02*
X923Y260D01*
X958Y260D02*
X1056Y260D01*
X899Y259D02*
X923Y259D01*
X958Y259D02*
X1056Y259D01*
X899Y258D02*
X923Y258D01*
X958Y258D02*
X1056Y258D01*
X899Y257D02*
X923Y257D01*
X958Y257D02*
X1056Y257D01*
X899Y256D02*
X923Y256D01*
X958Y256D02*
X1056Y256D01*
X899Y255D02*
X923Y255D01*
X958Y255D02*
X1056Y255D01*
X899Y254D02*
X923Y254D01*
X957Y254D02*
X1056Y254D01*
X899Y253D02*
X924Y253D01*
X957Y253D02*
X1055Y253D01*
X899Y252D02*
X924Y252D01*
X957Y252D02*
X1055Y252D01*
X900Y251D02*
X924Y251D01*
X956Y251D02*
X1055Y251D01*
X900Y250D02*
X925Y250D01*
X956Y250D02*
X1055Y250D01*
X900Y249D02*
X925Y249D01*
X955Y249D02*
X1055Y249D01*
X900Y248D02*
X926Y248D01*
X955Y248D02*
X1054Y248D01*
X901Y247D02*
X927Y247D01*
X954Y247D02*
X1054Y247D01*
X901Y246D02*
X928Y246D01*
X953Y246D02*
X1054Y246D01*
X901Y245D02*
X929Y245D01*
X952Y245D02*
X1054Y245D01*
X902Y244D02*
X930Y244D01*
X951Y244D02*
X1053Y244D01*
X902Y243D02*
X932Y243D01*
X949Y243D02*
X1053Y243D01*
X902Y242D02*
X935Y242D01*
X946Y242D02*
X1052Y242D01*
X903Y241D02*
X1052Y241D01*
X903Y240D02*
X1051Y240D01*
X904Y239D02*
X1051Y239D01*
X904Y238D02*
X1050Y238D01*
X905Y237D02*
X1050Y237D01*
X906Y236D02*
X1049Y236D01*
X906Y235D02*
X1048Y235D01*
X907Y234D02*
X1048Y234D01*
X908Y233D02*
X1047Y233D01*
X908Y232D02*
X1046Y232D01*
X909Y231D02*
X1045Y231D01*
X910Y230D02*
X1044Y230D01*
X911Y229D02*
X1043Y229D01*
X912Y228D02*
X1042Y228D01*
X913Y227D02*
X1041Y227D01*
X914Y226D02*
X1040Y226D01*
X916Y225D02*
X1039Y225D01*
X917Y224D02*
X1038Y224D01*
X919Y223D02*
X1036Y223D01*
X920Y222D02*
X1034Y222D01*
X922Y221D02*
X1033Y221D01*
X924Y220D02*
X1031Y220D01*
X926Y219D02*
X1028Y219D01*
X929Y218D02*
X1025Y218D01*
X933Y217D02*
X1021Y217D01*
X937Y200D02*
X1018Y200D01*
X931Y199D02*
X1023Y199D01*
X928Y198D02*
X1027Y198D01*
X925Y197D02*
X1029Y197D01*
X923Y196D02*
X1032Y196D01*
X921Y195D02*
X1034Y195D01*
X919Y194D02*
X1035Y194D01*
X918Y193D02*
X1037Y193D01*
X916Y192D02*
X1038Y192D01*
X915Y191D02*
X1040Y191D01*
X914Y190D02*
X1041Y190D01*
X913Y189D02*
X1042Y189D01*
X912Y188D02*
X1043Y188D01*
X911Y187D02*
X1044Y187D01*
X910Y186D02*
X1045Y186D01*
X909Y185D02*
X1046Y185D01*
X908Y184D02*
X1047Y184D01*
X907Y183D02*
X1047Y183D01*
X907Y182D02*
X1048Y182D01*
X906Y181D02*
X1049Y181D01*
X905Y180D02*
X1049Y180D01*
X905Y179D02*
X1050Y179D01*
X904Y178D02*
X1051Y178D01*
X904Y177D02*
X1051Y177D01*
X903Y176D02*
X1052Y176D01*
X903Y175D02*
X937Y175D01*
X944Y175D02*
X1052Y175D01*
X902Y174D02*
X933Y174D01*
X948Y174D02*
X1053Y174D01*
X902Y173D02*
X931Y173D01*
X950Y173D02*
X1053Y173D01*
X901Y172D02*
X929Y172D01*
X951Y172D02*
X1053Y172D01*
X901Y171D02*
X928Y171D01*
X953Y171D02*
X1054Y171D01*
X901Y170D02*
X927Y170D01*
X954Y170D02*
X1054Y170D01*
X900Y169D02*
X926Y169D01*
X954Y169D02*
X1054Y169D01*
X900Y168D02*
X926Y168D01*
X955Y168D02*
X1055Y168D01*
X900Y167D02*
X925Y167D01*
X956Y167D02*
X1055Y167D01*
X900Y166D02*
X924Y166D01*
X956Y166D02*
X1055Y166D01*
X899Y165D02*
X924Y165D01*
X957Y165D02*
X1055Y165D01*
X899Y164D02*
X924Y164D01*
X957Y164D02*
X1055Y164D01*
X899Y163D02*
X923Y163D01*
X957Y163D02*
X1056Y163D01*
X899Y162D02*
X923Y162D01*
X957Y162D02*
X1056Y162D01*
X899Y161D02*
X923Y161D01*
X958Y161D02*
X1056Y161D01*
X899Y160D02*
X923Y160D01*
X958Y160D02*
X1056Y160D01*
X899Y159D02*
X923Y159D01*
X958Y159D02*
X1056Y159D01*
X899Y158D02*
X923Y158D01*
X958Y158D02*
X1056Y158D01*
X899Y157D02*
X923Y157D01*
X958Y157D02*
X1056Y157D01*
X899Y156D02*
X923Y156D01*
X958Y156D02*
X1056Y156D01*
X899Y155D02*
X923Y155D01*
X958Y155D02*
X1056Y155D01*
X899Y154D02*
X923Y154D01*
X957Y154D02*
X1056Y154D01*
X899Y153D02*
X924Y153D01*
X957Y153D02*
X1055Y153D01*
X899Y152D02*
X924Y152D01*
X957Y152D02*
X1055Y152D01*
X900Y151D02*
X924Y151D01*
X956Y151D02*
X1055Y151D01*
X900Y150D02*
X925Y150D01*
X956Y150D02*
X1055Y150D01*
X900Y149D02*
X925Y149D01*
X955Y149D02*
X1055Y149D01*
X900Y148D02*
X926Y148D01*
X955Y148D02*
X1054Y148D01*
X901Y147D02*
X927Y147D01*
X954Y147D02*
X1054Y147D01*
X901Y146D02*
X928Y146D01*
X953Y146D02*
X1054Y146D01*
X901Y145D02*
X929Y145D01*
X952Y145D02*
X1053Y145D01*
X902Y144D02*
X930Y144D01*
X951Y144D02*
X1053Y144D01*
X902Y143D02*
X932Y143D01*
X949Y143D02*
X1053Y143D01*
X902Y142D02*
X935Y142D01*
X946Y142D02*
X1052Y142D01*
X903Y141D02*
X1052Y141D01*
X903Y140D02*
X1051Y140D01*
X904Y139D02*
X1051Y139D01*
X904Y138D02*
X1050Y138D01*
X905Y137D02*
X1050Y137D01*
X906Y136D02*
X1049Y136D01*
X906Y135D02*
X1048Y135D01*
X907Y134D02*
X1048Y134D01*
X908Y133D02*
X1047Y133D01*
X909Y132D02*
X1046Y132D01*
X909Y131D02*
X1045Y131D01*
X910Y130D02*
X1044Y130D01*
X911Y129D02*
X1043Y129D01*
X912Y128D02*
X1042Y128D01*
X913Y127D02*
X1041Y127D01*
X915Y126D02*
X1040Y126D01*
X916Y125D02*
X1039Y125D01*
X917Y124D02*
X1037Y124D01*
X919Y123D02*
X1036Y123D01*
X920Y122D02*
X1034Y122D01*
X922Y121D02*
X1032Y121D01*
X924Y120D02*
X1030Y120D01*
X927Y119D02*
X1028Y119D01*
X930Y118D02*
X1025Y118D01*
X934Y117D02*
X1021Y117D01*
D02*
G04 End of Mask1*
M02*